<svg width="94" height="48" viewBox="0 0 94 48" fill="none" xmlns="http://www.w3.org/2000/svg">
<g id="brand pilar" clip-path="url(#clip0_1741_13721)">
<path id="Vector" fill-rule="evenodd" clip-rule="evenodd" d="M3.54941 30.8557V22.2211C3.54941 22.2211 3.21362 22.2306 2.88737 22.1794C1.73713 22.0173 0.876236 21.0713 0.873855 19.9036C0.86552 18.8349 1.56566 18.0092 2.57302 17.9425C2.73734 17.9222 3.00287 17.9627 3.00287 17.9627C3.00287 17.9627 2.9469 17.6589 2.88022 17.4837C2.5873 16.7117 2.1003 16.0087 1.66688 15.3188C0.946489 14.1678 0.278494 13.0157 0.072499 11.6455C-0.0918206 10.5243 -0.0156144 9.31613 0.757164 8.39512C0.925056 8.2164 1.22274 8.00074 1.2787 7.96261C1.2787 7.96261 1.09295 7.5313 0.998881 7.13334C0.641664 5.35803 1.96098 3.47073 3.95902 3.12043C5.36883 2.86903 6.58218 3.21575 7.76814 3.92349C7.94317 4.03311 8.28729 4.2297 8.28729 4.2297C8.28729 4.2297 8.35754 3.88536 8.39565 3.75311C9.05769 1.71568 10.9081 0.43841 12.8644 0.102412C14.1552 -0.150181 15.5162 0.120285 16.8426 0.319262C18.2203 0.523005 19.5539 0.770833 20.928 0.918577C21.9151 0.992449 23.0546 0.752961 24.087 0.618324C25.7409 0.409815 27.3603 -0.022693 29.0392 0.00828549C31.4921 0.0476044 33.8045 1.68946 34.3736 3.77932C34.4022 3.90205 34.476 4.23804 34.476 4.23804C34.476 4.23804 34.7594 4.08672 34.9106 3.99736C35.6406 3.55294 36.4979 3.14426 37.435 3.05609C39.2473 2.87975 41.2203 3.74 41.7561 5.83582C41.8811 6.42322 41.868 6.99751 41.6644 7.55632C41.6299 7.65878 41.5037 7.9638 41.5037 7.9638C41.5037 7.9638 41.6716 8.07223 41.7406 8.12704C42.6884 8.95273 42.898 10.2622 42.7242 11.4894C42.5456 12.7095 42.0347 13.7854 41.4013 14.8255C40.8976 15.6512 40.3094 16.4507 39.9474 17.3658C39.8664 17.5695 39.7819 17.9544 39.7819 17.9544C39.7819 17.9544 40.0974 17.9317 40.2891 17.9496C40.9571 18.0199 41.6704 18.5251 41.8454 19.4032C42.0204 20.2623 41.7204 21.2381 40.9369 21.7635C40.5797 22.0054 40.1534 22.1794 39.7224 22.2115C39.558 22.2211 39.302 22.2389 39.302 22.2389C39.302 22.2389 39.2854 22.4987 39.2889 22.6476C39.3163 23.3875 39.2996 24.1429 39.2996 24.8876C39.2996 29.3449 39.2996 33.7927 39.2889 38.2512C39.2854 39.3927 39.1246 40.4674 38.7221 41.5409C37.9875 43.4818 36.5014 44.5899 34.3879 44.5816C31.3552 44.5721 28.3891 44.8473 25.4885 45.7874C24.1275 46.233 22.8677 46.874 21.6674 47.8236C21.5555 47.9082 21.4602 47.9999 21.4602 47.9999C21.4602 47.9999 21.3174 47.9058 21.234 47.8379C19.0228 46.2175 16.483 45.505 13.8515 45.0582C12.0262 44.7436 10.1829 44.5601 8.33492 44.5947C6.53812 44.6304 5.22594 43.8119 4.40673 42.1712C3.85423 41.0584 3.60299 39.7894 3.54941 38.6075C3.54345 36.0244 3.54703 33.4412 3.54703 30.8569" fill="white"/>
<path id="Vector_2" fill-rule="evenodd" clip-rule="evenodd" d="M38.2866 20.9737V38.4086C38.258 40.3281 37.7496 43.6952 34.4941 43.6952C31.2387 43.6952 25.241 44.0098 21.4248 46.8693C17.3251 44.0109 10.4963 43.6952 7.9601 43.6952C5.42386 43.6952 4.57011 40.558 4.57011 38.5373V20.7294C4.37721 20.9439 4.14621 21.1107 3.84972 21.2048C3.2365 21.374 2.52088 21.2441 2.12437 20.7532C1.7219 20.2314 1.78858 19.2782 2.44943 19.1376C2.78522 19.0637 3.12934 19.1376 3.37939 19.8084C4.03071 19.2293 4.1355 18.6967 3.97118 17.79C3.79614 16.9274 3.327 16.1505 2.86857 15.4071C1.96957 13.9678 0.891969 12.3938 1.0039 10.603C1.07058 9.39366 1.66475 8.62992 2.89595 8.67758C2.15413 7.73988 1.58854 6.76287 2.20057 5.59521C2.94835 4.16663 4.79516 3.88901 6.14901 4.41088C6.68126 4.62177 7.17065 4.88986 7.64932 5.18654C7.91961 5.36049 9.19249 6.03368 9.3711 6.10517C8.73764 3.51965 10.6333 1.9052 12.3479 1.3595C13.7268 0.922226 15.1461 1.20461 16.5464 1.41907C17.6716 1.5966 18.8302 1.7932 19.9912 1.93737C20.3865 1.98741 20.7854 2.04341 21.1771 2.06009H21.5831C21.982 2.04341 22.3976 1.98741 22.7691 1.93737C23.9265 1.7932 25.0851 1.5966 26.2246 1.41907C27.6106 1.20461 29.0335 0.922226 30.4159 1.3595C32.1306 1.90639 34.0405 3.52085 33.3927 6.10517C33.5821 6.03249 34.8514 5.36049 35.1419 5.18654C35.6146 4.88986 36.104 4.62177 36.6184 4.41088C37.9711 3.88901 39.8226 4.16663 40.5787 5.59521C41.1979 6.76287 40.6133 7.74107 39.8762 8.67758C41.1027 8.63111 41.7123 9.39366 41.7778 10.603C41.8731 12.3938 40.8085 13.9678 39.9 15.4071C39.4487 16.1505 38.976 16.9274 38.8081 17.79C38.6188 18.6979 38.745 19.2305 39.4035 19.8084C39.6404 19.1376 39.9869 19.0637 40.3263 19.1376C40.9812 19.277 41.0515 20.2314 40.6526 20.7532C40.2537 21.2429 39.5333 21.374 38.9379 21.2048C38.676 21.1202 38.4616 20.9915 38.2842 20.8211V20.9725L38.2866 20.9737ZM4.52486 11.0796C4.40579 9.49255 3.70684 9.23757 3.25912 9.40795C2.79832 9.58191 2.75188 10.572 2.96144 11.2035C3.14362 11.7468 3.78304 12.8835 4.40936 13.9546C4.45104 14.0249 4.4939 14.0952 4.52843 14.1691L4.52486 11.0808V11.0796ZM11.7275 8.58941C11.0072 8.37732 10.4082 7.99724 9.48898 7.39792C8.99245 7.08695 6.53242 5.40458 5.61914 5.63692C4.64036 5.89189 4.83326 6.7307 4.91304 7.00235C5.1357 7.72916 6.12638 8.05324 6.85749 8.20813C7.27067 8.282 7.66956 8.36302 8.10655 8.42975C8.99126 8.5489 9.60448 8.57987 10.4785 8.60966C10.8738 8.61681 11.2548 8.62753 11.6335 8.63468L11.9657 8.63111L11.7287 8.58821L11.7275 8.58941ZM27.5665 8.62872C30.1587 8.41426 31.715 6.56151 31.0018 4.4919C30.4183 2.79523 28.3536 2.30196 26.8247 2.30792C26.1877 2.33294 23.7503 2.69396 21.6129 2.912C21.4593 2.91915 21.3045 2.91915 21.1688 2.912C19.0386 2.69396 16.5869 2.33294 15.9534 2.30792C14.421 2.30196 12.3503 2.79523 11.7728 4.4919C11.056 6.58295 12.6575 8.45953 15.2878 8.6323L27.5665 8.62872ZM38.2616 14.156C38.2997 14.0821 38.339 14.0154 38.3807 13.9451C39.007 12.8692 39.6428 11.7397 39.8322 11.1904C40.0381 10.5589 39.9929 9.57357 39.5309 9.39723C39.0903 9.22566 38.383 9.4854 38.2652 11.0665L38.2616 14.156ZM30.8243 8.62158L31.1601 8.62992C31.534 8.61919 31.9162 8.6037 32.3116 8.60013C33.1939 8.56796 33.8011 8.54175 34.687 8.42141C35.1288 8.35111 35.5194 8.27366 35.9361 8.20337C36.6708 8.0449 37.6579 7.7232 37.8782 6.99401C37.9627 6.71878 38.1509 5.88355 37.1757 5.62977C36.2659 5.39505 33.8023 7.07742 33.3034 7.38601C32.3866 7.98533 31.7817 8.37017 31.0684 8.58107L30.8267 8.62277L30.8243 8.62158Z" fill="#0A51A1"/>
<path id="Vector_3" fill-rule="evenodd" clip-rule="evenodd" d="M6.24536 26.8882H19.591L19.2278 28.3311L20.5686 27.9486V44.5829C18.4824 42.6896 9.75085 41.7245 8.10765 41.7245C6.46445 41.7245 6.24655 39.139 6.24655 38.2668V26.8894L6.24536 26.8882Z" fill="white"/>
<path id="Vector_4" d="M36.3016 27.1992V38.2656C36.3016 38.5885 36.2563 41.4219 34.7453 41.4219C33.5343 41.4219 25.4362 42.1999 22.5642 43.9859V28.3799L23.5263 28.8529L24.0622 29.1103L23.9609 28.5241L23.7168 27.1992H36.3028H36.3016ZM36.6028 26.8882H23.362L23.6633 28.5837L22.2642 27.8962V44.5829C24.3515 42.6896 33.1009 41.7245 34.7453 41.7245C36.3897 41.7245 36.6028 39.139 36.6028 38.2668V26.8894V26.8882Z" fill="white"/>
<path id="Vector_5" d="M20.271 10.696V23.676L19.3232 23.4746L18.8552 23.3745L18.9731 23.8416L19.2184 24.8544H6.55028V10.696H20.271ZM20.5686 10.391H6.24902V25.1558H19.6065L19.266 23.7701L20.5686 24.0501V10.3898V10.391Z" fill="white"/>
<path id="Vector_6" fill-rule="evenodd" clip-rule="evenodd" d="M22.2642 10.3898H36.6028V25.1546H23.3691L23.6906 23.7558L22.2642 24.1395V10.3898Z" fill="#FF0001"/>
<path id="Vector_7" fill-rule="evenodd" clip-rule="evenodd" d="M28.1617 36.0196C27.1793 35.0855 28.9726 34.1538 28.2284 30.7926C28.3498 30.8558 28.6749 31.0869 28.9559 31.6493C29.2071 32.1628 29.2071 33.0743 29.1024 33.8392C29.0916 33.8714 29.6453 33.091 29.2345 31.7386C29.2179 31.6814 29.5751 31.996 29.7239 32.338C29.7977 32.4678 29.8192 32.5524 29.8501 32.6906C29.8501 32.6906 29.1369 33.9989 28.8392 34.4576C28.5737 34.8317 28.2903 35.3453 28.7761 36.0768C28.7761 36.0768 28.3081 36.0208 28.1605 36.0208" fill="white"/>
<path id="Vector_8" fill-rule="evenodd" clip-rule="evenodd" d="M33.6747 32.6894C33.7378 34.1323 32.4673 35.2428 31.429 35.7801C31.4945 35.7432 32.7757 34.4219 32.0303 32.8003C32.0089 32.7645 32.0589 34.4743 30.942 34.9437C30.9099 34.9497 32.0411 33.8917 31.8065 32.338C31.7434 31.9031 31.4433 31.4396 31.4433 31.523C31.5064 33.5866 30.6384 33.8202 30.6598 33.7951C31.1766 33.0088 31.279 31.9722 31.173 31.3181C31.0468 30.6139 30.7289 30.2541 30.6169 30.1409C30.3967 34.3611 27.8426 34.659 29.1369 36.2198C29.3595 36.6368 26.7352 35.219 26.4113 37.9403C26.4113 37.9486 26.4089 37.9558 26.4089 37.9641C26.4149 37.9617 26.422 37.9582 26.428 37.9558C26.8328 37.8009 27.9783 38.1166 28.3701 38.3216C29.2691 38.7994 30.374 38.9638 31.3469 38.6635C32.5888 38.3132 32.971 37.2981 33.3449 36.2401C34.1129 34.0632 34.9214 33.8583 35.0464 33.9453C34.6761 33.6259 34.2094 33.284 33.6735 32.6906M27.4639 37.2099C27.3972 37.2099 27.3246 37.1563 27.3246 37.0669C27.3246 37.0038 27.3972 36.9347 27.4639 36.9347C27.552 36.9347 27.6104 37.0038 27.6104 37.0669C27.6104 37.1563 27.5508 37.2099 27.4639 37.2099Z" fill="white"/>
<path id="Vector_9" fill-rule="evenodd" clip-rule="evenodd" d="M26.01 37.4459C26.01 37.4459 25.6981 37.0455 26.1422 36.7167C26.1422 36.7167 26.4399 37.1718 26.01 37.4459Z" fill="white"/>
<path id="Vector_10" fill-rule="evenodd" clip-rule="evenodd" d="M25.9124 37.7426C25.9124 37.7426 25.9053 38.2656 25.3635 38.2251C25.3635 38.2251 25.4123 37.6735 25.9124 37.7426Z" fill="white"/>
<path id="Vector_11" fill-rule="evenodd" clip-rule="evenodd" d="M25.4125 37.0658C25.4125 37.0658 24.9577 36.8275 25.2375 36.3533C25.2375 36.3533 25.6947 36.6583 25.4125 37.0658Z" fill="white"/>
<path id="Vector_12" fill-rule="evenodd" clip-rule="evenodd" d="M25.21 37.3827C25.21 37.3827 25.035 37.8581 24.542 37.6305C24.542 37.6305 24.7801 37.1289 25.21 37.3827Z" fill="white"/>
<path id="Vector_13" fill-rule="evenodd" clip-rule="evenodd" d="M24.6849 37.0014C24.6849 37.0014 24.2646 37.2754 23.999 36.781C23.999 36.781 24.4789 36.5272 24.6849 37.0014Z" fill="white"/>
<path id="Vector_14" fill-rule="evenodd" clip-rule="evenodd" d="M24.7407 37.0455C24.7407 37.0455 26.0243 37.1075 27.2353 39.1437L27.302 39.0579C27.302 39.0579 26.3077 37.2731 24.7407 37.0455Z" fill="white"/>
<path id="Vector_15" fill-rule="evenodd" clip-rule="evenodd" d="M16.6498 37.6937H13.8659V33.1029H16.0128V31.971H13.8659V29.4904H12.7848V31.971H10.5045V33.1029H12.7848V37.6937H9.86035V39.4094H10.4938L10.5045 39.3928V39.4094H10.4938L10.0604 40.0659H16.4593L16.0247 39.4094H16.651V37.6937H16.6498ZM10.9368 39.7085L11.1606 39.2557V38.0607H15.352V39.2557L15.5794 39.7085H10.9368Z" fill="#0A51A1"/>
<path id="Vector_16" fill-rule="evenodd" clip-rule="evenodd" d="M15.9985 37.3827C15.9985 37.1945 16.1414 37.0455 16.32 37.0455C16.4986 37.0455 16.6499 37.1933 16.6499 37.3827C16.6499 37.5591 16.5058 37.7104 16.32 37.7104C16.1343 37.7104 15.9985 37.5591 15.9985 37.3827Z" fill="#0A51A1"/>
<path id="Vector_17" fill-rule="evenodd" clip-rule="evenodd" d="M9.85913 37.3827C9.85913 37.1945 9.98535 37.0455 10.1663 37.0455C10.3473 37.0455 10.5021 37.1933 10.5021 37.3827C10.5021 37.5591 10.3521 37.7104 10.1663 37.7104C9.98058 37.7104 9.85913 37.5591 9.85913 37.3827Z" fill="#0A51A1"/>
<path id="Vector_18" fill-rule="evenodd" clip-rule="evenodd" d="M10.5034 39.3927V39.4095H10.4927L10.5034 39.3927Z" fill="#0A51A1"/>
<path id="Vector_19" fill-rule="evenodd" clip-rule="evenodd" d="M15.1304 39.3129V38.2799H11.3844V39.3129L11.2927 39.4797H15.2138L15.1292 39.3129H15.1304ZM14.9006 39.2569H11.5952V38.5122H14.9006V39.2569Z" fill="#0A51A1"/>
<path id="Vector_20" fill-rule="evenodd" clip-rule="evenodd" d="M15.1304 39.3129V38.2799H11.3844V39.3129L11.2927 39.4797H15.2138L15.1292 39.3129H15.1304ZM14.9006 39.2569H11.5952V38.5122H14.9006V39.2569Z" fill="white"/>
<path id="Vector_21" fill-rule="evenodd" clip-rule="evenodd" d="M15.1304 39.3129V38.2799H11.3844V39.3129L11.2927 39.4797H15.2138L15.1292 39.3129H15.1304ZM14.9006 39.2569H11.5952V38.5122H14.9006V39.2569Z" fill="#0A51A1"/>
<path id="Vector_22" fill-rule="evenodd" clip-rule="evenodd" d="M10.5034 39.3927V39.4095H10.4927L10.5034 39.3927Z" fill="#0A51A1"/>
<path id="Vector_23" d="M15.4519 4.06416C15.6698 4.02603 15.9853 3.99744 16.4223 3.99744C16.8593 3.99744 17.1773 4.08203 17.3916 4.2548C17.5904 4.41326 17.7202 4.6885 17.7202 5.00186C17.7202 5.33309 17.6214 5.5976 17.4333 5.7787C17.1927 6.00866 16.8248 6.12066 16.4092 6.12066C16.3104 6.12066 16.2271 6.11351 16.1616 6.10278V7.27044H15.4543V4.06416H15.4519ZM16.1592 5.53921C16.2259 5.55232 16.2949 5.55709 16.3961 5.55709C16.7736 5.55709 17.0117 5.35811 17.0117 5.03164C17.0117 4.73139 16.8153 4.55505 16.4557 4.55505C16.308 4.55505 16.2068 4.56458 16.158 4.58007V5.53921H16.1592Z" fill="#0A51A1"/>
<path id="Vector_24" d="M18.8907 4.0177H18.1775V7.27044H18.8907V4.0177Z" fill="#0A51A1"/>
<path id="Vector_25" d="M19.5112 4.0177H20.2245V6.65326H21.4807V7.27163H19.5112V4.0177Z" fill="#0A51A1"/>
<path id="Vector_26" d="M22.6618 6.43283L22.4391 7.27044H21.6997L22.6666 4.0177H23.5965L24.5836 7.27044H23.8144L23.5727 6.43283H22.663H22.6618ZM23.4596 5.88594L23.2667 5.19131C23.2107 5.00186 23.1583 4.75404 23.1095 4.56459H23.0964C23.0547 4.76118 23.0012 5.00186 22.9535 5.19131L22.7642 5.88594H23.4596Z" fill="#0A51A1"/>
<path id="Vector_27" d="M25.0005 4.06416C25.2303 4.02603 25.5661 3.99744 25.9519 3.99744C26.4198 3.99744 26.7497 4.06416 26.9771 4.2548C27.1664 4.40731 27.2676 4.63488 27.2676 4.9399C27.2676 5.345 26.983 5.62738 26.7116 5.72866V5.74534C26.9318 5.83589 27.0545 6.04559 27.1307 6.34942C27.2367 6.7164 27.3272 7.14295 27.3831 7.27044H26.658C26.6092 7.17393 26.5294 6.91418 26.4377 6.51504C26.346 6.10278 26.2138 5.99436 25.9162 5.99198H25.7102V7.26924H25.0005V4.06297V4.06416ZM25.7102 5.46058H25.99C26.3436 5.46058 26.5568 5.26875 26.5568 4.99113C26.5568 4.69803 26.3579 4.54552 26.0317 4.54552C25.8566 4.54552 25.759 4.55386 25.7102 4.56577V5.46058Z" fill="#0A51A1"/>
<path id="Vector_28" d="M34.1129 22.0841C34.0414 22.3486 33.8652 22.662 33.539 22.7728C32.9019 23.0087 30.7717 22.8955 29.3964 22.9098C29.0083 22.9205 26.7411 22.9098 26.3458 22.8466C26.291 22.8419 26.2101 22.8323 26.1267 22.8145C26.1541 22.8121 26.1827 22.8073 26.2089 22.8002C26.2255 22.7966 26.2422 22.7918 26.2589 22.7882C26.3303 22.7763 26.3958 22.7477 26.4577 22.7084C26.6054 22.6143 26.7221 22.4594 26.8042 22.32C26.8578 22.2354 26.9043 22.1508 26.9471 22.0722C26.9566 22.0531 30.7253 22.0686 32.8126 22.0781C33.4639 22.0817 33.9521 22.0841 34.1117 22.0841" fill="white"/>
<path id="Vector_29" d="M25.1885 12.9705C25.1885 12.9705 25.5672 13.4613 25.7767 14.2692L24.7336 14.262C24.7336 14.262 24.6467 13.2767 25.1885 12.9705Z" fill="white"/>
<path id="Vector_30" d="M29.2083 19.1197C29.2286 19.1602 29.2393 19.2126 29.2357 19.2829C29.2357 19.3544 29.2226 19.4068 29.2047 19.4462C29.1881 19.4914 29.1559 19.5188 29.1166 19.5415C29.0785 19.5546 29.0261 19.5665 28.9559 19.5665L28.8713 19.5629L28.8856 18.9982C28.9094 18.9946 28.9452 18.9946 28.9904 18.9982C29.0464 18.9982 29.0916 19.0125 29.1297 19.0327C29.1678 19.047 29.1893 19.078 29.2071 19.1197" fill="white"/>
<path id="Vector_31" d="M31.2791 19.8727C31.2291 19.9132 31.2029 19.9644 31.2029 20.0395C31.2029 20.074 31.2089 20.1062 31.2374 20.1276C31.2541 20.1515 31.2851 20.1658 31.3279 20.1658C31.3553 20.1658 31.3839 20.1539 31.4125 20.1407C31.4434 20.1276 31.4613 20.1026 31.4827 20.074C31.4922 20.049 31.503 20.018 31.503 19.9894L31.5065 19.8202C31.4018 19.8202 31.3279 19.8417 31.2791 19.8739M31.2791 19.8739C31.2291 19.9144 31.2029 19.9656 31.2029 20.0407C31.2029 20.0752 31.2089 20.1074 31.2374 20.1288C31.2541 20.1527 31.2851 20.167 31.3279 20.167C31.3553 20.167 31.3839 20.155 31.4125 20.1419C31.4434 20.1288 31.4613 20.1038 31.4827 20.0752C31.4922 20.0502 31.503 20.0192 31.503 19.9906L31.5065 19.8214C31.4018 19.8214 31.3279 19.8429 31.2791 19.8751M29.7014 17.5993C29.7014 17.5338 29.6907 17.4778 29.6645 17.4456C29.6395 17.4135 29.605 17.3992 29.5549 17.3992C29.5204 17.3992 29.4918 17.4135 29.4597 17.4385C29.443 17.4635 29.4216 17.5028 29.4085 17.5433C29.3978 17.5969 29.3906 17.6529 29.3906 17.7232C29.3942 17.8293 29.4085 17.9163 29.4287 17.9782C29.4573 18.0294 29.4918 18.0557 29.5478 18.0557C29.5692 18.0521 29.5966 18.0449 29.6181 18.0342C29.6466 18.0235 29.6645 18.002 29.6812 17.9782C29.6943 17.9532 29.7085 17.921 29.7085 17.89L29.7014 17.6005V17.5993ZM31.2791 19.8751C31.2291 19.9156 31.2029 19.9668 31.2029 20.0419C31.2029 20.0764 31.2089 20.1086 31.2374 20.13C31.2541 20.1539 31.2851 20.1682 31.3279 20.1682C31.3553 20.1682 31.3839 20.1562 31.4125 20.1431C31.4434 20.13 31.4613 20.105 31.4827 20.0764C31.4922 20.0514 31.503 20.0204 31.503 19.9918L31.5065 19.8226C31.4018 19.8226 31.3279 19.8441 31.2791 19.8762M31.2791 19.8762C31.2291 19.9168 31.2029 19.968 31.2029 20.043C31.2029 20.0776 31.2089 20.1098 31.2374 20.1312C31.2541 20.155 31.2851 20.1693 31.3279 20.1693C31.3553 20.1693 31.3839 20.1574 31.4125 20.1443C31.4434 20.1312 31.4613 20.1062 31.4827 20.0776C31.4922 20.0526 31.503 20.0216 31.503 19.993L31.5065 19.8238C31.4018 19.8238 31.3279 19.8453 31.2791 19.8774M29.7014 17.6017C29.7014 17.5362 29.6907 17.4802 29.6645 17.448C29.6395 17.4158 29.605 17.4015 29.5549 17.4015C29.5204 17.4015 29.4918 17.4158 29.4597 17.4409C29.443 17.4659 29.4216 17.5052 29.4085 17.5457C29.3978 17.5993 29.3906 17.6553 29.3906 17.7256C29.3942 17.8317 29.4085 17.9186 29.4287 17.9806C29.4573 18.0318 29.4918 18.058 29.5478 18.058C29.5692 18.0545 29.5966 18.0473 29.6181 18.0366C29.6466 18.0259 29.6645 18.0044 29.6812 17.9806C29.6943 17.9556 29.7085 17.9234 29.7085 17.8924L29.7014 17.6029V17.6017ZM29.7014 17.6017C29.7014 17.5362 29.6907 17.4802 29.6645 17.448C29.6395 17.4158 29.605 17.4015 29.5549 17.4015C29.5204 17.4015 29.4918 17.4158 29.4597 17.4409C29.443 17.4659 29.4216 17.5052 29.4085 17.5457C29.3978 17.5993 29.3906 17.6553 29.3906 17.7256C29.3942 17.8317 29.4085 17.9186 29.4287 17.9806C29.4573 18.0318 29.4918 18.058 29.5478 18.058C29.5692 18.0545 29.5966 18.0473 29.6181 18.0366C29.6466 18.0259 29.6645 18.0044 29.6812 17.9806C29.6943 17.9556 29.7085 17.9234 29.7085 17.8924L29.7014 17.6029V17.6017ZM30.6706 17.4492C30.6528 17.4075 30.6171 17.386 30.573 17.386C30.529 17.386 30.4956 17.4075 30.4682 17.4504C30.4468 17.4957 30.4254 17.566 30.4254 17.6506L30.7135 17.641C30.7064 17.5564 30.6992 17.4909 30.6718 17.448M31.2803 19.8762C31.2303 19.9168 31.2041 19.968 31.2041 20.043C31.2041 20.0776 31.21 20.1098 31.2386 20.1312C31.2553 20.155 31.2862 20.1693 31.3291 20.1693C31.3565 20.1693 31.3851 20.1574 31.4137 20.1443C31.4446 20.1312 31.4625 20.1062 31.4839 20.0776C31.4934 20.0526 31.5042 20.0216 31.5042 19.993L31.5077 19.8238C31.4029 19.8238 31.3291 19.8453 31.2803 19.8774M31.2803 19.8774C31.2303 19.9179 31.2041 19.9692 31.2041 20.0442C31.2041 20.0788 31.21 20.111 31.2386 20.1324C31.2553 20.1562 31.2862 20.1705 31.3291 20.1705C31.3565 20.1705 31.3851 20.1586 31.4137 20.1455C31.4446 20.1324 31.4625 20.1074 31.4839 20.0788C31.4934 20.0538 31.5042 20.0228 31.5042 19.9942L31.5077 19.825C31.4029 19.825 31.3291 19.8465 31.2803 19.8786M30.6718 17.4504C30.654 17.4087 30.6183 17.3872 30.5742 17.3872C30.5301 17.3872 30.4968 17.4087 30.4694 17.4516C30.448 17.4969 30.4265 17.5672 30.4265 17.6517L30.7147 17.6422C30.7076 17.5576 30.7004 17.4921 30.673 17.4492M29.7038 17.6017C29.7038 17.5362 29.6931 17.4802 29.6669 17.448C29.6419 17.4158 29.6073 17.4015 29.5573 17.4015C29.5228 17.4015 29.4942 17.4158 29.4621 17.4409C29.4454 17.4659 29.424 17.5052 29.4109 17.5457C29.4001 17.5993 29.393 17.6553 29.393 17.7256C29.3966 17.8317 29.4109 17.9186 29.4311 17.9806C29.4597 18.0318 29.4942 18.058 29.5502 18.058C29.5716 18.0545 29.599 18.0473 29.6204 18.0366C29.649 18.0259 29.6669 18.0044 29.6835 17.9806C29.6966 17.9556 29.7109 17.9234 29.7109 17.8924L29.7038 17.6029V17.6017ZM29.7038 17.6017C29.7038 17.5362 29.6931 17.4802 29.6669 17.448C29.6419 17.4158 29.6073 17.4015 29.5573 17.4015C29.5228 17.4015 29.4942 17.4158 29.4621 17.4409C29.4454 17.4659 29.424 17.5052 29.4109 17.5457C29.4001 17.5993 29.393 17.6553 29.393 17.7256C29.3966 17.8317 29.4109 17.9186 29.4311 17.9806C29.4597 18.0318 29.4942 18.058 29.5502 18.058C29.5716 18.0545 29.599 18.0473 29.6204 18.0366C29.649 18.0259 29.6669 18.0044 29.6835 17.9806C29.6966 17.9556 29.7109 17.9234 29.7109 17.8924L29.7038 17.6029V17.6017ZM30.673 17.4492C30.6552 17.4075 30.6194 17.386 30.5754 17.386C30.5313 17.386 30.498 17.4075 30.4706 17.4504C30.4492 17.4957 30.4277 17.566 30.4277 17.6506L30.7159 17.641C30.7087 17.5564 30.7016 17.4909 30.6742 17.448M31.2827 19.8762C31.2327 19.9168 31.2065 19.968 31.2065 20.043C31.2065 20.0776 31.2124 20.1098 31.241 20.1312C31.2577 20.155 31.2886 20.1693 31.3315 20.1693C31.3589 20.1693 31.3875 20.1574 31.416 20.1443C31.447 20.1312 31.4649 20.1062 31.4863 20.0776C31.4958 20.0526 31.5065 20.0216 31.5065 19.993L31.5101 19.8238C31.4053 19.8238 31.3315 19.8453 31.2827 19.8774M31.2827 19.8774C31.2327 19.9179 31.2065 19.9692 31.2065 20.0442C31.2065 20.0788 31.2124 20.111 31.241 20.1324C31.2577 20.1562 31.2886 20.1705 31.3315 20.1705C31.3589 20.1705 31.3875 20.1586 31.416 20.1455C31.447 20.1324 31.4649 20.1074 31.4863 20.0788C31.4958 20.0538 31.5065 20.0228 31.5065 19.9942L31.5101 19.825C31.4053 19.825 31.3315 19.8465 31.2827 19.8786M30.6742 17.4504C30.6564 17.4087 30.6206 17.3872 30.5766 17.3872C30.5325 17.3872 30.4992 17.4087 30.4718 17.4516C30.4504 17.4969 30.4289 17.5672 30.4289 17.6517L30.7171 17.6422C30.7099 17.5576 30.7028 17.4921 30.6754 17.4492M29.7062 17.6017C29.7062 17.5362 29.6954 17.4802 29.6693 17.448C29.6442 17.4158 29.6097 17.4015 29.5597 17.4015C29.5252 17.4015 29.4966 17.4158 29.4644 17.4409C29.4478 17.4659 29.4263 17.5052 29.4132 17.5457C29.4025 17.5993 29.3954 17.6553 29.3954 17.7256C29.399 17.8317 29.4132 17.9186 29.4335 17.9806C29.4621 18.0318 29.4966 18.058 29.5526 18.058C29.574 18.0545 29.6014 18.0473 29.6228 18.0366C29.6514 18.0259 29.6693 18.0044 29.6859 17.9806C29.699 17.9556 29.7133 17.9234 29.7133 17.8924L29.7062 17.6029V17.6017ZM29.2835 15.7656C29.2418 15.7978 29.2144 15.8455 29.2144 15.905C29.2144 15.936 29.2275 15.967 29.2489 15.9837C29.2692 15.998 29.2942 16.0111 29.3287 16.0111C29.3537 16.0111 29.3811 15.998 29.4061 15.9872C29.4263 15.9729 29.4478 15.9551 29.4621 15.9301C29.4728 15.905 29.4764 15.8776 29.4764 15.855V15.7132C29.3882 15.7192 29.3216 15.7323 29.2835 15.7644M29.7062 17.6005C29.7062 17.535 29.6954 17.479 29.6693 17.4468C29.6442 17.4146 29.6097 17.4003 29.5597 17.4003C29.5252 17.4003 29.4966 17.4146 29.4644 17.4397C29.4478 17.4647 29.4263 17.504 29.4132 17.5445C29.4025 17.5981 29.3954 17.6541 29.3954 17.7244C29.399 17.8305 29.4132 17.9174 29.4335 17.9794C29.4621 18.0306 29.4966 18.0569 29.5526 18.0569C29.574 18.0533 29.6014 18.0461 29.6228 18.0354C29.6514 18.0247 29.6693 18.0032 29.6859 17.9794C29.699 17.9544 29.7133 17.9222 29.7133 17.8912L29.7062 17.6017V17.6005ZM30.6754 17.448C30.6575 17.4063 30.6218 17.3849 30.5778 17.3849C30.5337 17.3849 30.5004 17.4063 30.473 17.4492C30.4516 17.4945 30.4301 17.5648 30.4301 17.6494L30.7183 17.6398C30.7111 17.5552 30.704 17.4897 30.6766 17.4468M31.2851 19.8751C31.235 19.9156 31.2089 19.9668 31.2089 20.0419C31.2089 20.0764 31.2148 20.1086 31.2434 20.13C31.2601 20.1539 31.291 20.1682 31.3339 20.1682C31.3613 20.1682 31.3898 20.1562 31.4184 20.1431C31.4494 20.13 31.4672 20.105 31.4887 20.0764C31.4982 20.0514 31.5089 20.0204 31.5089 19.9918L31.5125 19.8226C31.4077 19.8226 31.3339 19.8441 31.2851 19.8762M31.2851 19.8762C31.235 19.9168 31.2089 19.968 31.2089 20.043C31.2089 20.0776 31.2148 20.1098 31.2434 20.1312C31.2601 20.155 31.291 20.1693 31.3339 20.1693C31.3613 20.1693 31.3898 20.1574 31.4184 20.1443C31.4494 20.1312 31.4672 20.1062 31.4887 20.0776C31.4982 20.0526 31.5089 20.0216 31.5089 19.993L31.5125 19.8238C31.4077 19.8238 31.3339 19.8453 31.2851 19.8774M30.6766 17.4492C30.6587 17.4075 30.623 17.386 30.579 17.386C30.5349 17.386 30.5016 17.4075 30.4742 17.4504C30.4527 17.4957 30.4313 17.566 30.4313 17.6506L30.7195 17.641C30.7123 17.5564 30.7052 17.4909 30.6778 17.448M29.7085 17.6005C29.7085 17.535 29.6978 17.479 29.6716 17.4468C29.6466 17.4146 29.6121 17.4003 29.5621 17.4003C29.5276 17.4003 29.499 17.4146 29.4668 17.4397C29.4502 17.4647 29.4287 17.504 29.4156 17.5445C29.4049 17.5981 29.3978 17.6541 29.3978 17.7244C29.4013 17.8305 29.4156 17.9174 29.4359 17.9794C29.4644 18.0306 29.499 18.0569 29.5549 18.0569C29.5764 18.0533 29.6038 18.0461 29.6252 18.0354C29.6538 18.0247 29.6716 18.0032 29.6883 17.9794C29.7014 17.9544 29.7157 17.9222 29.7157 17.8912L29.7085 17.6017V17.6005ZM29.2858 15.7644C29.2442 15.7966 29.2168 15.8443 29.2168 15.9038C29.2168 15.9348 29.2299 15.9658 29.2513 15.9825C29.2715 15.9968 29.2966 16.0099 29.3311 16.0099C29.3561 16.0099 29.3835 15.9968 29.4085 15.9861C29.4287 15.9718 29.4502 15.9539 29.4644 15.9289C29.4752 15.9038 29.4787 15.8764 29.4787 15.8538V15.712C29.3906 15.718 29.3239 15.7311 29.2858 15.7632M29.2858 15.7632C29.2442 15.7954 29.2168 15.8431 29.2168 15.9027C29.2168 15.9336 29.2299 15.9646 29.2513 15.9813C29.2715 15.9956 29.2966 16.0087 29.3311 16.0087C29.3561 16.0087 29.3835 15.9956 29.4085 15.9849C29.4287 15.9706 29.4502 15.9527 29.4644 15.9277C29.4752 15.9027 29.4787 15.8752 29.4787 15.8526V15.7108C29.3906 15.7168 29.3239 15.7299 29.2858 15.7621M29.7085 17.5981C29.7085 17.5326 29.6978 17.4766 29.6716 17.4444C29.6466 17.4123 29.6121 17.398 29.5621 17.398C29.5276 17.398 29.499 17.4123 29.4668 17.4373C29.4502 17.4623 29.4287 17.5016 29.4156 17.5421C29.4049 17.5957 29.3978 17.6517 29.3978 17.722C29.4013 17.8281 29.4156 17.9151 29.4359 17.977C29.4644 18.0283 29.499 18.0545 29.5549 18.0545C29.5764 18.0509 29.6038 18.0437 29.6252 18.033C29.6538 18.0223 29.6716 18.0009 29.6883 17.977C29.7014 17.952 29.7157 17.9198 29.7157 17.8889L29.7085 17.5993V17.5981ZM30.6778 17.4456C30.6599 17.4039 30.6242 17.3825 30.5802 17.3825C30.5361 17.3825 30.5028 17.4039 30.4754 17.4468C30.4539 17.4921 30.4325 17.5624 30.4325 17.647L30.7207 17.6374C30.7135 17.5529 30.7064 17.4873 30.679 17.4444M31.0529 15.6894C30.9683 15.6918 30.9052 15.7084 30.8612 15.7406C30.8231 15.774 30.8016 15.8169 30.8016 15.8717C30.8016 15.911 30.8159 15.9348 30.8266 15.9598C30.8504 15.9729 30.8743 15.9849 30.91 15.9849C30.935 15.9849 30.9588 15.973 30.9874 15.9622C31.0088 15.9467 31.0255 15.9312 31.0398 15.9027C31.0541 15.8788 31.0564 15.8574 31.0564 15.8324L31.0541 15.6882L31.0529 15.6894ZM31.2874 19.8727C31.2374 19.9132 31.2112 19.9644 31.2112 20.0395C31.2112 20.074 31.2172 20.1062 31.2458 20.1276C31.2624 20.1515 31.2934 20.1658 31.3363 20.1658C31.3636 20.1658 31.3922 20.1539 31.4208 20.1407C31.4518 20.1276 31.4696 20.1026 31.4911 20.074C31.5006 20.049 31.5113 20.018 31.5113 19.9894L31.5149 19.8202C31.4101 19.8202 31.3363 19.8417 31.2874 19.8739M32.0566 15.3522C32.0328 15.3212 31.9971 15.3033 31.9459 15.3033C31.9102 15.3033 31.878 15.3176 31.8518 15.3427C31.8304 15.3748 31.809 15.407 31.8018 15.4618C31.7887 15.5071 31.784 15.5631 31.784 15.6274C31.784 15.7418 31.7983 15.8216 31.8256 15.8812C31.8471 15.9384 31.8899 15.9646 31.9411 15.9646C31.965 15.9646 31.9864 15.9563 32.0162 15.9455C32.0364 15.9324 32.0578 15.9134 32.0757 15.8884C32.0864 15.861 32.0995 15.8347 32.0959 15.7966V15.5071C32.0959 15.4404 32.0817 15.3832 32.0578 15.3522M32.0578 15.3522C32.034 15.3212 31.9983 15.3033 31.9471 15.3033C31.9114 15.3033 31.8792 15.3176 31.853 15.3427C31.8316 15.3748 31.8102 15.407 31.803 15.4618C31.7899 15.5071 31.7852 15.5631 31.7852 15.6274C31.7852 15.7418 31.7995 15.8216 31.8268 15.8812C31.8483 15.9384 31.8911 15.9646 31.9423 15.9646C31.9662 15.9646 31.9876 15.9563 32.0174 15.9455C32.0376 15.9324 32.059 15.9134 32.0769 15.8884C32.0876 15.861 32.1007 15.8347 32.0971 15.7966V15.5071C32.0971 15.4404 32.0828 15.3832 32.059 15.3522M31.2898 19.8739C31.2398 19.9144 31.2136 19.9656 31.2136 20.0407C31.2136 20.0752 31.2196 20.1074 31.2481 20.1288C31.2648 20.1527 31.2958 20.167 31.3386 20.167C31.366 20.167 31.3946 20.155 31.4232 20.1419C31.4541 20.1288 31.472 20.1038 31.4934 20.0752C31.503 20.0502 31.5137 20.0192 31.5137 19.9906L31.5173 19.8214C31.4125 19.8214 31.3386 19.8429 31.2898 19.8751M30.6814 17.4468C30.6635 17.4051 30.6278 17.3837 30.5837 17.3837C30.5397 17.3837 30.5063 17.4051 30.4789 17.448C30.4575 17.4933 30.4361 17.5636 30.4361 17.6482L30.7242 17.6386C30.7171 17.554 30.7099 17.4885 30.6826 17.4456M29.7133 17.5981C29.7133 17.5326 29.7026 17.4766 29.6764 17.4444C29.6514 17.4123 29.6169 17.398 29.5668 17.398C29.5323 17.398 29.5037 17.4123 29.4716 17.4373C29.4549 17.4623 29.4335 17.5016 29.4204 17.5421C29.4097 17.5957 29.4025 17.6517 29.4025 17.722C29.4061 17.8281 29.4204 17.9151 29.4406 17.977C29.4692 18.0283 29.5037 18.0545 29.5597 18.0545C29.5811 18.0509 29.6085 18.0437 29.63 18.033C29.6585 18.0223 29.6764 18.0009 29.6931 17.977C29.7062 17.952 29.7205 17.9198 29.7205 17.8889L29.7133 17.5993V17.5981ZM29.2906 15.7621C29.2489 15.7942 29.2215 15.8419 29.2215 15.9015C29.2215 15.9324 29.2346 15.9634 29.2561 15.9801C29.2763 15.9944 29.3013 16.0075 29.3358 16.0075C29.3609 16.0075 29.3882 15.9944 29.4132 15.9837C29.4335 15.9694 29.4549 15.9515 29.4692 15.9265C29.4799 15.9015 29.4835 15.8741 29.4835 15.8514V15.7096C29.3954 15.7156 29.3287 15.7287 29.2906 15.7609M31.0576 15.6894C30.9731 15.6918 30.91 15.7084 30.8659 15.7406C30.8278 15.774 30.8064 15.8169 30.8064 15.8717C30.8064 15.911 30.8207 15.9348 30.8314 15.9598C30.8552 15.9729 30.879 15.9849 30.9147 15.9849C30.9398 15.9849 30.9636 15.973 30.9921 15.9622C31.0136 15.9467 31.0302 15.9312 31.0445 15.9027C31.0588 15.8788 31.0612 15.8574 31.0612 15.8324L31.0588 15.6882L31.0576 15.6894ZM33.6736 16.1803C33.5963 14.2942 32.7723 13.0336 32.009 12.8429C30.5968 12.4914 25.9185 12.6034 25.2017 12.9704C25.3005 13.0336 25.3588 13.0908 25.4398 13.1646C25.8208 13.5626 26.0864 14.0821 26.2233 14.5896C26.8079 16.6747 26.3352 19.0768 25.9435 21.163C25.8839 21.48 25.6994 22.0138 25.7565 22.4129C25.7875 22.5285 25.8375 22.6095 25.9447 22.6583C26.1054 22.7453 26.3221 22.6405 26.4483 22.5082C26.6091 22.314 26.7567 22.0817 26.8651 21.8517H33.3212C33.42 21.1595 33.7546 18.5871 33.676 16.1803M31.4375 17.8984C31.4375 17.9544 31.4375 17.9925 31.4446 18.0104C31.4446 18.0306 31.4518 18.0497 31.4625 18.064C31.4732 18.0735 31.4899 18.0819 31.522 18.0902V18.1474L31.1053 18.1546V18.095C31.1219 18.089 31.1326 18.0878 31.1398 18.0807C31.1541 18.0771 31.1577 18.07 31.1648 18.0628C31.1708 18.0545 31.1743 18.0414 31.1743 18.0306C31.185 18.0247 31.185 18.0068 31.185 17.9889V17.9031L31.1743 17.23V17.1251C31.1743 17.0965 31.1743 17.0786 31.1708 17.0608C31.1672 17.0465 31.1648 17.0322 31.1577 17.025C31.1541 17.0131 31.1398 17.0095 31.1326 17.0012C31.1219 16.994 31.1053 16.9917 31.0814 16.9905V16.9285L31.3113 16.9154H31.4232L31.4375 17.8984ZM31.0422 15.3963C31.0279 15.3713 31.0148 15.3498 30.9933 15.3391C30.9755 15.326 30.9552 15.3188 30.9267 15.3188C30.8945 15.3188 30.8778 15.326 30.8564 15.3319C30.8385 15.3403 30.8219 15.3641 30.8076 15.3808C30.7933 15.4082 30.7802 15.4427 30.7695 15.4904L30.6147 15.4964L30.6087 15.3379C30.6647 15.3141 30.7135 15.2938 30.7409 15.2831C30.7683 15.2676 30.8076 15.2545 30.8457 15.2473C30.8766 15.2438 30.9052 15.2366 30.9326 15.2295C30.9564 15.2295 30.985 15.2223 31.0136 15.2223C31.0826 15.2223 31.1386 15.2295 31.1743 15.2473C31.2196 15.2676 31.2553 15.2962 31.2732 15.3379C31.297 15.3772 31.3041 15.4368 31.3041 15.5083L31.3113 15.8467V15.9348C31.3184 15.9527 31.3184 15.973 31.322 15.9777L31.3422 16.0063C31.3422 16.0123 31.3494 16.0123 31.3494 16.0123C31.3625 16.023 31.3803 16.0254 31.4053 16.0301V16.0873L31.091 16.0933L31.0969 15.9765L31.0803 15.9718C31.0314 16.0218 30.9933 16.0575 30.9409 16.079C30.9064 16.1004 30.8564 16.1112 30.8076 16.1112C30.7552 16.1112 30.7135 16.1004 30.6742 16.0849C30.6433 16.0599 30.6147 16.0397 30.5968 16.0111C30.5754 15.9753 30.5659 15.9408 30.5659 15.8979C30.5659 15.8145 30.6075 15.7501 30.6849 15.6977C30.7683 15.6441 30.8945 15.6167 31.0588 15.6012V15.5154C31.0588 15.4654 31.0517 15.4249 31.041 15.3939M29.9753 15.2736C29.9955 15.2604 30.0062 15.2461 30.0134 15.2271C30.0205 15.2033 30.0277 15.1794 30.0372 15.1484C30.0372 15.1187 30.0455 15.0829 30.0455 15.0341L30.2479 15.0317L30.2515 15.2461L30.4956 15.2426V15.3474L30.2551 15.3534L30.261 15.7418C30.261 15.8061 30.261 15.8562 30.2646 15.8872C30.2753 15.9181 30.286 15.9396 30.2991 15.9575C30.3134 15.9706 30.3337 15.9753 30.3551 15.9753C30.3694 15.9753 30.3861 15.9718 30.3968 15.9718C30.4111 15.9718 30.417 15.9658 30.4313 15.9587C30.448 15.9479 30.4623 15.9408 30.4801 15.9229L30.5361 15.9908C30.4837 16.0397 30.4385 16.0695 30.4004 16.0861C30.3587 16.1064 30.3122 16.11 30.2634 16.11C30.1836 16.1171 30.1205 16.0992 30.0741 16.0468C30.036 16.0051 30.011 15.9336 30.011 15.8383L30.0086 15.3558L29.8991 15.3617L29.8955 15.2974C29.93 15.2926 29.955 15.2831 29.9729 15.2736M30.0979 18.8754L30.0908 19.1185L29.8205 19.1161L29.8276 18.8671L30.0967 18.8742L30.0979 18.8754ZM29.1048 15.718C29.1882 15.6691 29.3144 15.6334 29.4787 15.6155V15.5345C29.4787 15.4833 29.4716 15.4415 29.4609 15.4141C29.4442 15.3867 29.4323 15.3689 29.4144 15.3534C29.3942 15.3415 29.3728 15.3367 29.3442 15.3367C29.3168 15.3391 29.2918 15.3415 29.2739 15.3486C29.2596 15.3617 29.2394 15.3772 29.2251 15.4034C29.2084 15.4332 29.2025 15.469 29.1906 15.5107L29.0298 15.5154V15.3558C29.0787 15.3367 29.1239 15.3129 29.1549 15.2986C29.1965 15.2878 29.2287 15.2747 29.2596 15.2664C29.2918 15.2616 29.3263 15.2533 29.3549 15.2485C29.3787 15.2461 29.4061 15.2426 29.4323 15.2426C29.5025 15.2426 29.5573 15.2485 29.5966 15.2664C29.6395 15.2843 29.674 15.3164 29.6919 15.3558C29.7193 15.401 29.724 15.4582 29.724 15.5285L29.7312 15.8657V15.9515C29.7383 15.9718 29.7419 15.9837 29.7419 15.998C29.7455 16.0123 29.7514 16.0158 29.7586 16.023C29.7586 16.023 29.7693 16.0289 29.7824 16.0361C29.7895 16.0397 29.8038 16.0421 29.8288 16.0504V16.1064L29.5073 16.11L29.5145 15.9968L29.5037 15.9908C29.4549 16.0397 29.4132 16.0718 29.3668 16.1004C29.318 16.1171 29.2751 16.1243 29.2263 16.1243C29.1822 16.1302 29.1358 16.1243 29.0941 16.1028C29.0632 16.0849 29.0382 16.0599 29.0167 16.0289C28.9965 15.998 28.9846 15.9598 28.9846 15.9158C28.981 15.8324 29.0263 15.7644 29.1037 15.7192M28.0332 15.2545C28.0225 15.2223 28.013 15.1901 28.0046 15.1735C28.0022 15.1556 27.9915 15.1365 27.988 15.1246C27.9784 15.1175 27.9701 15.1044 27.9701 15.1044C27.9498 15.0865 27.9427 15.0781 27.9427 15.0781C27.9248 15.071 27.9082 15.065 27.8963 15.0615C27.8784 15.0567 27.8641 15.0567 27.8403 15.0567H27.7784L27.7879 15.9181V15.9849C27.7951 16.0063 27.8022 16.017 27.8022 16.0313L27.8201 16.0492C27.8296 16.0599 27.8367 16.0623 27.8474 16.0623C27.857 16.0718 27.8784 16.0742 27.8963 16.0802V16.1338L27.4235 16.1398V16.079C27.4438 16.079 27.4652 16.073 27.4795 16.0611C27.4902 16.0611 27.5009 16.0504 27.5117 16.0373C27.5176 16.0254 27.5176 16.0123 27.5248 15.9908V15.9253L27.5152 15.065H27.4414C27.4093 15.065 27.389 15.071 27.364 15.0781C27.3426 15.0853 27.3295 15.096 27.3176 15.1175C27.2997 15.1377 27.2938 15.1568 27.283 15.1842C27.2759 15.2164 27.2652 15.245 27.2616 15.2676H27.1461L27.1402 14.9673L28.1475 14.9507L28.1535 15.2545H28.032H28.0332ZM28.3047 15.5214V15.4332C28.3011 15.4082 28.2987 15.3951 28.2916 15.3796C28.2916 15.3796 28.2749 15.3629 28.2702 15.3474C28.2606 15.3403 28.2404 15.3355 28.2106 15.3307L28.207 15.2736L28.4452 15.2604H28.55L28.5428 15.3879L28.55 15.3939C28.5964 15.3474 28.6369 15.3093 28.6762 15.2831C28.7238 15.2628 28.7703 15.2521 28.8226 15.2485C28.8584 15.2485 28.8893 15.2533 28.9274 15.2604L28.9334 15.5023H28.7726C28.7691 15.4666 28.7548 15.4415 28.7381 15.4237C28.7238 15.4034 28.7036 15.3998 28.675 15.3998C28.675 15.3998 28.65 15.401 28.6357 15.4058C28.619 15.4189 28.6047 15.4308 28.594 15.4416C28.5833 15.4558 28.5702 15.4701 28.5655 15.488C28.5595 15.5023 28.5559 15.5142 28.5559 15.5297C28.5559 15.5476 28.5524 15.5702 28.5524 15.6L28.5559 15.8693C28.5595 15.9277 28.5595 15.9718 28.5595 15.9884C28.5702 16.0099 28.5797 16.0278 28.5869 16.0397C28.5964 16.0528 28.6226 16.0599 28.65 16.0683V16.1243H28.2261V16.0718C28.2582 16.0599 28.2725 16.0575 28.2856 16.0397C28.2963 16.0289 28.3023 16.0111 28.3023 15.9908C28.313 15.9718 28.313 15.9336 28.313 15.8776L28.3023 15.5214H28.3047ZM29.4847 19.4902C29.4525 19.5522 29.3942 19.6058 29.312 19.6344C29.2394 19.6665 29.1477 19.6808 29.0405 19.6808C28.9739 19.6808 28.9215 19.6761 28.8822 19.6737L28.875 19.993V20.0859C28.8822 20.1038 28.8858 20.1217 28.8893 20.1324C28.9036 20.1431 28.9096 20.1491 28.9274 20.1562C28.9381 20.167 28.962 20.1705 28.9905 20.1801L28.9822 20.2444L28.4571 20.2301V20.167C28.4785 20.1634 28.5035 20.1515 28.5178 20.1491C28.5273 20.1396 28.5416 20.1324 28.5416 20.1169C28.5559 20.105 28.5595 20.0859 28.5595 20.0621C28.5595 20.0442 28.5655 20.0168 28.5655 19.9882L28.5833 19.1208V19.047C28.5833 19.0243 28.5797 19.0112 28.5702 18.9934C28.5595 18.9791 28.5524 18.9695 28.5416 18.9612C28.525 18.9505 28.5035 18.9433 28.4785 18.9362L28.4821 18.8694L29.056 18.8825C29.2239 18.8873 29.3537 18.9183 29.4299 18.9779C29.5109 19.041 29.5502 19.1363 29.5502 19.2602C29.5502 19.352 29.5287 19.4259 29.4835 19.489M29.4561 18.1867C29.3549 18.1867 29.2739 18.1522 29.218 18.0771C29.1656 18.0104 29.1406 17.9008 29.1406 17.7566C29.1406 17.6613 29.1549 17.5767 29.1858 17.5052C29.218 17.4409 29.2585 17.3932 29.3251 17.3563C29.3847 17.3193 29.4585 17.3026 29.543 17.2991C29.5668 17.2991 29.5954 17.3026 29.6169 17.3062C29.6407 17.3086 29.6728 17.3122 29.7038 17.3205V17.2466C29.7038 17.1835 29.7002 17.1406 29.7002 17.1168C29.7002 17.0858 29.6931 17.0703 29.6907 17.0596C29.6835 17.0453 29.6764 17.031 29.6621 17.0238C29.6562 17.0119 29.6311 17.0119 29.6061 17.0083V16.9464L29.8431 16.9321L29.9455 16.9285L29.9598 17.9151C29.9634 17.958 29.9634 17.9889 29.9634 18.0068C29.9634 18.0271 29.9717 18.0461 29.9741 18.0533C29.9812 18.0664 29.9884 18.0771 30.0015 18.0854C30.0015 18.0854 30.0324 18.0997 30.0539 18.1033V18.1653L29.8264 18.1724L29.7216 18.1748L29.7288 18.0485H29.7181C29.6728 18.0914 29.63 18.1212 29.5859 18.1462C29.5395 18.1712 29.5014 18.182 29.4561 18.1855M30.1729 20.2635L29.6907 20.2575V20.186C29.7228 20.1836 29.7502 20.1693 29.7645 20.1622C29.7681 20.1443 29.7812 20.1241 29.7848 20.1014C29.7919 20.0776 29.7967 20.0347 29.7967 19.9716L29.8026 19.5057V19.4247C29.799 19.4032 29.7919 19.3925 29.7848 19.3794C29.7812 19.3615 29.7645 19.3615 29.749 19.3508C29.749 19.3508 29.7181 19.3389 29.7014 19.3305V19.2638H30.0967L30.0824 19.9751V20.099C30.086 20.1205 30.0896 20.1312 30.0896 20.1312C30.1003 20.1491 30.1003 20.1515 30.1074 20.167L30.1241 20.1813C30.1455 20.1872 30.1586 20.1956 30.1729 20.1991V20.2659V20.2635ZM30.1813 17.7423C30.1813 17.647 30.1991 17.566 30.2301 17.4992C30.261 17.4254 30.311 17.3777 30.3765 17.3443C30.4361 17.3074 30.5087 17.2872 30.5932 17.2872C30.648 17.2836 30.6945 17.2931 30.729 17.3015C30.7754 17.3158 30.8028 17.3289 30.835 17.3551C30.8624 17.3753 30.8862 17.398 30.9016 17.4313C30.929 17.4635 30.9433 17.504 30.9529 17.5517C30.9671 17.5993 30.9743 17.6553 30.9743 17.7244L30.4313 17.7304C30.4313 17.8364 30.4563 17.9139 30.4908 17.958C30.529 18.0092 30.5825 18.0378 30.6552 18.0378C30.7016 18.033 30.7409 18.0271 30.7754 18.0056C30.8064 17.9889 30.8481 17.958 30.8862 17.9174L30.9529 17.9949C30.8981 18.0521 30.8409 18.0997 30.785 18.1295C30.7254 18.1534 30.6623 18.1689 30.5849 18.1689C30.4563 18.1724 30.3551 18.1379 30.2849 18.0664C30.2182 17.9925 30.186 17.8829 30.1801 17.7423M30.8016 20.2778L30.3158 20.267V20.1991C30.3337 20.1956 30.3515 20.1932 30.3611 20.1848C30.3753 20.1825 30.3825 20.1753 30.3861 20.1646C30.3861 20.1646 30.3992 20.1467 30.4075 20.1324C30.4099 20.1229 30.4135 20.1014 30.4135 20.0836C30.4135 20.0585 30.417 20.024 30.417 19.9811L30.4301 19.2019C30.4337 19.1459 30.4337 19.1042 30.4337 19.0744C30.4337 19.0505 30.4301 19.0303 30.4277 19.0124C30.4277 18.991 30.4242 18.9767 30.4135 18.9624C30.4099 18.9552 30.3992 18.9421 30.3861 18.9338C30.3753 18.9278 30.3551 18.9254 30.323 18.9242L30.3301 18.854L30.6028 18.8432H30.7254L30.7076 19.9906C30.7076 20.0538 30.7076 20.0919 30.7111 20.1217C30.7147 20.1431 30.7218 20.1634 30.7349 20.1777C30.7421 20.1956 30.7623 20.2027 30.8004 20.2134V20.2802L30.8016 20.2778ZM31.9042 20.2992L31.5303 20.2909L31.5446 20.1622L31.5268 20.155C31.4756 20.211 31.422 20.2468 31.366 20.2682C31.3136 20.2921 31.2612 20.304 31.2053 20.3004C31.1493 20.3004 31.1005 20.2897 31.0553 20.2647C31.016 20.248 30.9886 20.2194 30.9636 20.1801C30.9421 20.1407 30.9326 20.0979 30.9326 20.0502C30.9362 19.9513 30.9874 19.8691 31.0862 19.8167C31.1803 19.7631 31.3267 19.7321 31.5161 19.7225L31.5196 19.6236C31.5196 19.5665 31.5125 19.5164 31.5018 19.4854C31.4922 19.4497 31.4708 19.4247 31.4541 19.4104C31.4291 19.4008 31.4006 19.3925 31.3732 19.3901C31.341 19.3901 31.3136 19.3925 31.2922 19.4044C31.2684 19.4187 31.2505 19.4318 31.2327 19.4628C31.2124 19.4962 31.2005 19.5379 31.1862 19.5915L30.9969 19.5843L31.0076 19.4032C31.0624 19.3758 31.1196 19.3556 31.1577 19.3413C31.1993 19.3317 31.2374 19.3174 31.2755 19.3091C31.3148 19.2996 31.3529 19.2924 31.3815 19.2924C31.4089 19.2853 31.4518 19.2853 31.4791 19.2853C31.5565 19.2853 31.6185 19.2996 31.6613 19.321C31.7173 19.3413 31.7494 19.377 31.7709 19.4271C31.7947 19.4759 31.8054 19.5402 31.8054 19.6248L31.7935 20.0156C31.7935 20.0621 31.7935 20.0931 31.7971 20.1169C31.7971 20.1419 31.8006 20.1634 31.8006 20.1634C31.8078 20.1848 31.8149 20.1956 31.8149 20.1956C31.8292 20.2099 31.8399 20.2134 31.8399 20.2134C31.8495 20.2206 31.8757 20.2289 31.903 20.2313V20.3016L31.9042 20.2992ZM31.8411 16.0981C31.7363 16.0981 31.6589 16.0575 31.6101 15.9872C31.5542 15.9169 31.5268 15.8109 31.5268 15.6679C31.5268 15.569 31.5375 15.4868 31.5649 15.4189C31.5994 15.3462 31.6458 15.2974 31.7054 15.264C31.7685 15.2259 31.8411 15.2104 31.9257 15.2092C31.9578 15.2092 31.9781 15.2116 32.0031 15.2116C32.0305 15.2199 32.059 15.2199 32.0876 15.233V15.152C32.0876 15.0924 32.0876 15.0496 32.0828 15.0198C32.0828 14.9971 32.0793 14.9757 32.0769 14.965C32.0697 14.9471 32.0626 14.9411 32.0483 14.934C32.0388 14.9233 32.0209 14.9161 31.9888 14.9161V14.8589L32.2233 14.8399H32.3353L32.3448 15.8228C32.3448 15.8681 32.3496 15.8967 32.3496 15.9181C32.3519 15.9396 32.3519 15.9575 32.3555 15.9718C32.3662 15.9753 32.3734 15.9825 32.3793 15.9968C32.3936 16.0039 32.4186 16.0099 32.4424 16.0135V16.0707L32.2079 16.0849H32.1102V15.9646H32.0995C32.0578 16.0039 32.0185 16.0349 31.9697 16.0587C31.9245 16.0849 31.8792 16.0992 31.8399 16.0992M32.8759 19.5974L32.6973 19.5939C32.683 19.5581 32.6758 19.5283 32.6592 19.5057C32.6341 19.4878 32.6127 19.4735 32.5865 19.4735C32.5687 19.4735 32.552 19.4759 32.5365 19.4866C32.5186 19.4962 32.502 19.5081 32.4889 19.5259C32.4746 19.5367 32.4603 19.5581 32.4532 19.5724C32.4448 19.5891 32.4424 19.6034 32.4424 19.6225C32.4389 19.6379 32.4317 19.6701 32.4317 19.7023L32.4282 20.0204C32.4282 20.0836 32.4282 20.1288 32.4317 20.1503C32.4389 20.1789 32.446 20.1956 32.4591 20.211C32.4734 20.2277 32.4972 20.2349 32.5258 20.2468L32.5234 20.3135L32.04 20.3028V20.2361C32.0745 20.2277 32.0959 20.2194 32.1102 20.2039C32.1221 20.1872 32.1317 20.1693 32.1317 20.1491C32.1424 20.1241 32.1424 20.0848 32.1424 20.0145L32.1567 19.6046C32.1567 19.5593 32.1567 19.52 32.1483 19.4974C32.146 19.4711 32.146 19.4568 32.1424 19.439C32.1317 19.4259 32.1281 19.4187 32.1102 19.4032C32.1007 19.3925 32.0793 19.3901 32.0483 19.3782V19.3115L32.321 19.3079H32.4436L32.4258 19.4556L32.4401 19.4616C32.4901 19.402 32.5377 19.3687 32.5913 19.3425C32.6425 19.3186 32.6961 19.3067 32.7544 19.3067C32.7961 19.3067 32.839 19.3139 32.8842 19.3198L32.8771 19.5951L32.8759 19.5974ZM33.3593 15.8764C33.3212 15.9444 33.2783 15.9896 33.2164 16.0278C33.1485 16.0599 33.07 16.0766 32.9783 16.0766C32.8973 16.0766 32.827 16.0659 32.7651 16.0385C32.7056 16.0111 32.6603 15.9646 32.6187 15.8979C32.5865 15.8324 32.5651 15.7501 32.5651 15.6477C32.5651 15.5738 32.5722 15.5059 32.5972 15.4499C32.6187 15.3927 32.6425 15.3474 32.6782 15.3093C32.7163 15.2736 32.7651 15.2414 32.8175 15.2283C32.8699 15.2033 32.9223 15.2033 32.9818 15.2033C33.1212 15.1961 33.2259 15.2307 33.2962 15.3081C33.3688 15.3772 33.4057 15.4844 33.4057 15.6227C33.4081 15.7215 33.3914 15.8061 33.3593 15.8764ZM32.9783 15.2878C32.9437 15.2878 32.9116 15.2986 32.8866 15.3307C32.8699 15.3486 32.8521 15.3891 32.8425 15.4368C32.8318 15.4904 32.8282 15.5488 32.8282 15.631C32.8282 15.7513 32.8425 15.8455 32.8699 15.8991C32.8973 15.9658 32.9366 15.9908 32.9961 15.9896C33.0271 15.9896 33.0485 15.9849 33.0652 15.9658C33.089 15.9515 33.1045 15.9289 33.1188 15.8991C33.1283 15.8717 33.1354 15.8383 33.139 15.793C33.1485 15.7501 33.1485 15.7061 33.1485 15.656C33.1485 15.5309 33.1319 15.4368 33.1045 15.3772C33.0759 15.3164 33.0366 15.2843 32.9783 15.2878ZM31.9471 15.2986C31.9114 15.2986 31.8792 15.3129 31.853 15.3379C31.8316 15.3701 31.8102 15.4022 31.803 15.457C31.7899 15.5023 31.7852 15.5583 31.7852 15.6227C31.7852 15.737 31.7995 15.8169 31.8268 15.8764C31.8483 15.9336 31.8911 15.9598 31.9423 15.9598C31.9662 15.9598 31.9876 15.9515 32.0174 15.9408C32.0376 15.9277 32.059 15.9086 32.0769 15.8836C32.0876 15.8562 32.1007 15.83 32.0971 15.7918V15.5023C32.0971 15.4356 32.0828 15.3784 32.059 15.3474C32.0352 15.3164 31.9995 15.2986 31.9483 15.2986M31.2136 20.0359C31.2136 20.0705 31.2196 20.1026 31.2481 20.1241C31.2648 20.1479 31.2958 20.1622 31.3386 20.1622C31.366 20.1622 31.3946 20.1503 31.4232 20.1372C31.4541 20.1241 31.472 20.099 31.4934 20.0705C31.503 20.0454 31.5137 20.0145 31.5137 19.9859L31.5173 19.8167C31.4125 19.8167 31.3386 19.8381 31.2898 19.8703C31.2398 19.9108 31.2136 19.962 31.2136 20.0371M30.8635 15.7394C30.8254 15.7728 30.804 15.8157 30.804 15.8705C30.804 15.9098 30.8183 15.9336 30.829 15.9587C30.8528 15.9718 30.8766 15.9837 30.9124 15.9837C30.9374 15.9837 30.9612 15.9718 30.9898 15.961C31.0112 15.9455 31.0279 15.9301 31.0422 15.9015C31.0564 15.8776 31.0588 15.8562 31.0588 15.8312L31.0564 15.687C30.9719 15.6894 30.9088 15.7061 30.8647 15.7382M30.6826 17.4409C30.6647 17.3992 30.629 17.3777 30.5849 17.3777C30.5409 17.3777 30.5075 17.3992 30.4801 17.442C30.4587 17.4873 30.4373 17.5576 30.4373 17.6422L30.7254 17.6327C30.7183 17.5481 30.7111 17.4826 30.6837 17.4397M29.7145 17.5922C29.7145 17.5266 29.7038 17.4706 29.6776 17.4385C29.6526 17.4063 29.6181 17.392 29.568 17.392C29.5335 17.392 29.5049 17.4063 29.4728 17.4313C29.4561 17.4563 29.4347 17.4957 29.4216 17.5362C29.4109 17.5898 29.4037 17.6458 29.4037 17.7161C29.4073 17.8221 29.4216 17.9091 29.4418 17.9711C29.4704 18.0223 29.5049 18.0485 29.5609 18.0485C29.5823 18.0449 29.6097 18.0378 29.6311 18.0271C29.6597 18.0163 29.6776 17.9949 29.6943 17.9711C29.7074 17.946 29.7216 17.9139 29.7216 17.8829L29.7145 17.5934V17.5922ZM29.3358 16.0027C29.3609 16.0027 29.3882 15.9896 29.4132 15.9789C29.4335 15.9646 29.4549 15.9467 29.4692 15.9217C29.4799 15.8967 29.4835 15.8693 29.4835 15.8467V15.7049C29.3954 15.7108 29.3287 15.7239 29.2906 15.7561C29.2489 15.7883 29.2215 15.8359 29.2215 15.8955C29.2215 15.9265 29.2346 15.9575 29.2561 15.9741C29.2763 15.9884 29.3013 16.0015 29.3358 16.0015M31.0576 15.6846C30.9731 15.687 30.91 15.7037 30.8659 15.7358C30.8278 15.7692 30.8064 15.8121 30.8064 15.8669C30.8064 15.9062 30.8207 15.9301 30.8314 15.9551C30.8552 15.9682 30.879 15.9801 30.9147 15.9801C30.9398 15.9801 30.9636 15.9682 30.9921 15.9575C31.0136 15.942 31.0302 15.9265 31.0445 15.8979C31.0588 15.8741 31.0612 15.8526 31.0612 15.8276L31.0588 15.6834L31.0576 15.6846ZM29.2906 15.7561C29.2489 15.7883 29.2215 15.8359 29.2215 15.8955C29.2215 15.9265 29.2346 15.9575 29.2561 15.9741C29.2763 15.9884 29.3013 16.0015 29.3358 16.0015C29.3609 16.0015 29.3882 15.9884 29.4132 15.9777C29.4335 15.9634 29.4549 15.9455 29.4692 15.9205C29.4799 15.8955 29.4835 15.8681 29.4835 15.8455V15.7037C29.3954 15.7096 29.3287 15.7227 29.2906 15.7549M29.7133 17.591C29.7133 17.5254 29.7026 17.4695 29.6764 17.4373C29.6514 17.4051 29.6169 17.3908 29.5668 17.3908C29.5323 17.3908 29.5037 17.4051 29.4716 17.4301C29.4549 17.4552 29.4335 17.4945 29.4204 17.535C29.4097 17.5886 29.4025 17.6446 29.4025 17.7149C29.4061 17.8209 29.4204 17.9079 29.4406 17.9699C29.4692 18.0211 29.5037 18.0473 29.5597 18.0473C29.5811 18.0437 29.6085 18.0366 29.63 18.0259C29.6585 18.0151 29.6764 17.9937 29.6931 17.9699C29.7062 17.9449 29.7205 17.9127 29.7205 17.8817L29.7133 17.5922V17.591ZM30.6826 17.4385C30.6647 17.3968 30.629 17.3753 30.5849 17.3753C30.5409 17.3753 30.5075 17.3968 30.4801 17.4397C30.4587 17.4849 30.4373 17.5552 30.4373 17.6398L30.7254 17.6303C30.7183 17.5457 30.7111 17.4802 30.6837 17.4373M31.2922 19.8655C31.2422 19.906 31.216 19.9573 31.216 20.0323C31.216 20.0669 31.222 20.099 31.2505 20.1205C31.2672 20.1443 31.2982 20.1586 31.341 20.1586C31.3684 20.1586 31.397 20.1467 31.4256 20.1336C31.4565 20.1205 31.4744 20.0955 31.4958 20.0669C31.5053 20.0419 31.5161 20.0109 31.5161 19.9823L31.5196 19.8131C31.4148 19.8131 31.341 19.8345 31.2922 19.8667M31.2922 19.8667C31.2422 19.9072 31.216 19.9585 31.216 20.0335C31.216 20.0681 31.222 20.1002 31.2505 20.1217C31.2672 20.1455 31.2982 20.1598 31.341 20.1598C31.3684 20.1598 31.397 20.1479 31.4256 20.1348C31.4565 20.1217 31.4744 20.0967 31.4958 20.0681C31.5053 20.043 31.5161 20.0121 31.5161 19.9835L31.5196 19.8143C31.4148 19.8143 31.341 19.8357 31.2922 19.8679M31.0576 15.6846C30.9731 15.687 30.91 15.7037 30.8659 15.7358C30.8278 15.7692 30.8064 15.8121 30.8064 15.8669C30.8064 15.9062 30.8207 15.9301 30.8314 15.9551C30.8552 15.9682 30.879 15.9801 30.9147 15.9801C30.9398 15.9801 30.9636 15.9682 30.9921 15.9575C31.0136 15.942 31.0302 15.9265 31.0445 15.8979C31.0588 15.8741 31.0612 15.8526 31.0612 15.8276L31.0588 15.6834L31.0576 15.6846ZM30.6837 17.4397C30.6659 17.398 30.6302 17.3765 30.5861 17.3765C30.542 17.3765 30.5087 17.398 30.4813 17.4409C30.4599 17.4861 30.4385 17.5564 30.4385 17.641L30.7266 17.6315C30.7195 17.5469 30.7123 17.4814 30.6849 17.4385M29.7157 17.591C29.7157 17.5254 29.705 17.4695 29.6788 17.4373C29.6538 17.4051 29.6192 17.3908 29.5692 17.3908C29.5347 17.3908 29.5061 17.4051 29.474 17.4301C29.4573 17.4552 29.4359 17.4945 29.4228 17.535C29.4121 17.5886 29.4049 17.6446 29.4049 17.7149C29.4085 17.8209 29.4228 17.9079 29.443 17.9699C29.4716 18.0211 29.5061 18.0473 29.5621 18.0473C29.5835 18.0437 29.6109 18.0366 29.6323 18.0259C29.6609 18.0151 29.6788 17.9937 29.6954 17.9699C29.7085 17.9449 29.7228 17.9127 29.7228 17.8817L29.7157 17.5922V17.591ZM29.293 15.7549C29.2513 15.7871 29.2239 15.8347 29.2239 15.8943C29.2239 15.9253 29.237 15.9563 29.2585 15.9729C29.2787 15.9872 29.3037 16.0004 29.3382 16.0004C29.3632 16.0004 29.3906 15.9872 29.4156 15.9765C29.4359 15.9622 29.4573 15.9444 29.4716 15.9193C29.4823 15.8943 29.4859 15.8669 29.4859 15.8443V15.7025C29.3978 15.7084 29.3311 15.7215 29.293 15.7537M29.293 15.7537C29.2513 15.7859 29.2239 15.8335 29.2239 15.8931C29.2239 15.9241 29.237 15.9551 29.2585 15.9718C29.2787 15.9861 29.3037 15.9992 29.3382 15.9992C29.3632 15.9992 29.3906 15.9861 29.4156 15.9753C29.4359 15.961 29.4573 15.9432 29.4716 15.9181C29.4823 15.8931 29.4859 15.8657 29.4859 15.8431V15.7013C29.3978 15.7072 29.3311 15.7204 29.293 15.7525M29.7157 17.5886C29.7157 17.5231 29.705 17.4671 29.6788 17.4349C29.6538 17.4027 29.6192 17.3884 29.5692 17.3884C29.5347 17.3884 29.5061 17.4027 29.474 17.4277C29.4573 17.4528 29.4359 17.4921 29.4228 17.5326C29.4121 17.5862 29.4049 17.6422 29.4049 17.7125C29.4085 17.8186 29.4228 17.9055 29.443 17.9675C29.4716 18.0187 29.5061 18.0449 29.5621 18.0449C29.5835 18.0414 29.6109 18.0342 29.6323 18.0235C29.6609 18.0128 29.6788 17.9913 29.6954 17.9675C29.7085 17.9425 29.7228 17.9103 29.7228 17.8793L29.7157 17.5898V17.5886ZM30.6849 17.4361C30.6671 17.3944 30.6314 17.3729 30.5873 17.3729C30.5432 17.3729 30.5099 17.3944 30.4825 17.4373C30.4611 17.4826 30.4396 17.5529 30.4396 17.6374L30.7278 17.6279C30.7207 17.5433 30.7135 17.4778 30.6861 17.4349M31.2946 19.8631C31.2446 19.9036 31.2184 19.9549 31.2184 20.0299C31.2184 20.0645 31.2243 20.0967 31.2529 20.1181C31.2696 20.1419 31.3005 20.1562 31.3434 20.1562C31.3708 20.1562 31.3994 20.1443 31.4279 20.1312C31.4589 20.1181 31.4768 20.0931 31.4982 20.0645C31.5077 20.0395 31.5184 20.0085 31.5184 19.9799L31.522 19.8107C31.4172 19.8107 31.3434 19.8322 31.2946 19.8643M31.2946 19.8643C31.2446 19.9048 31.2184 19.9561 31.2184 20.0311C31.2184 20.0657 31.2243 20.0979 31.2529 20.1193C31.2696 20.1431 31.3005 20.1574 31.3434 20.1574C31.3708 20.1574 31.3994 20.1455 31.4279 20.1324C31.4589 20.1193 31.4768 20.0943 31.4982 20.0657C31.5077 20.0407 31.5184 20.0097 31.5184 19.9811L31.522 19.8119C31.4172 19.8119 31.3434 19.8333 31.2946 19.8655M30.6861 17.4373C30.6683 17.3956 30.6325 17.3741 30.5885 17.3741C30.5444 17.3741 30.5111 17.3956 30.4837 17.4385C30.4623 17.4837 30.4408 17.554 30.4408 17.6386L30.729 17.6291C30.7218 17.5445 30.7147 17.479 30.6873 17.4361M29.7181 17.5886C29.7181 17.5231 29.7074 17.4671 29.6812 17.4349C29.6562 17.4027 29.6216 17.3884 29.5716 17.3884C29.5371 17.3884 29.5085 17.4027 29.4764 17.4277C29.4597 17.4528 29.4382 17.4921 29.4252 17.5326C29.4144 17.5862 29.4073 17.6422 29.4073 17.7125C29.4109 17.8186 29.4252 17.9055 29.4454 17.9675C29.474 18.0187 29.5085 18.0449 29.5645 18.0449C29.5859 18.0414 29.6133 18.0342 29.6347 18.0235C29.6633 18.0128 29.6812 17.9913 29.6978 17.9675C29.7109 17.9425 29.7252 17.9103 29.7252 17.8793L29.7181 17.5898V17.5886ZM29.2954 15.7525C29.2537 15.7847 29.2263 15.8324 29.2263 15.8919C29.2263 15.9229 29.2394 15.9539 29.2608 15.9706C29.2811 15.9849 29.3061 15.998 29.3406 15.998C29.3656 15.998 29.393 15.9849 29.418 15.9741C29.4383 15.9598 29.4597 15.942 29.474 15.9169C29.4847 15.8919 29.4883 15.8645 29.4883 15.8419V15.7001C29.4001 15.7061 29.3335 15.7192 29.2954 15.7513M29.7181 17.5874C29.7181 17.5219 29.7074 17.4659 29.6812 17.4337C29.6562 17.4015 29.6216 17.3872 29.5716 17.3872C29.5371 17.3872 29.5085 17.4015 29.4764 17.4266C29.4597 17.4516 29.4382 17.4909 29.4252 17.5314C29.4144 17.585 29.4073 17.641 29.4073 17.7113C29.4109 17.8174 29.4252 17.9043 29.4454 17.9663C29.474 18.0175 29.5085 18.0437 29.5645 18.0437C29.5859 18.0402 29.6133 18.033 29.6347 18.0223C29.6633 18.0116 29.6812 17.9901 29.6978 17.9663C29.7109 17.9413 29.7252 17.9091 29.7252 17.8781L29.7181 17.5886V17.5874ZM30.6873 17.4349C30.6695 17.3932 30.6337 17.3717 30.5897 17.3717C30.5456 17.3717 30.5123 17.3932 30.4849 17.4361C30.4635 17.4814 30.442 17.5517 30.442 17.6363L30.7302 17.6267C30.723 17.5421 30.7159 17.4766 30.6885 17.4337M31.297 19.8619C31.247 19.9025 31.2208 19.9537 31.2208 20.0288C31.2208 20.0633 31.2267 20.0955 31.2553 20.1169C31.272 20.1408 31.3029 20.155 31.3458 20.155C31.3732 20.155 31.4018 20.1431 31.4303 20.13C31.4613 20.1169 31.4791 20.0919 31.5006 20.0633C31.5101 20.0383 31.5208 20.0073 31.5208 19.9787L31.5244 19.8095C31.4196 19.8095 31.3458 19.831 31.297 19.8631M31.297 19.8631C31.247 19.9036 31.2208 19.9549 31.2208 20.0299C31.2208 20.0645 31.2267 20.0967 31.2553 20.1181C31.272 20.1419 31.3029 20.1562 31.3458 20.1562C31.3732 20.1562 31.4018 20.1443 31.4303 20.1312C31.4613 20.1181 31.4791 20.0931 31.5006 20.0645C31.5101 20.0395 31.5208 20.0085 31.5208 19.9799L31.5244 19.8107C31.4196 19.8107 31.3458 19.8322 31.297 19.8643M30.6885 17.4361C30.6706 17.3944 30.6349 17.3729 30.5909 17.3729C30.5468 17.3729 30.5135 17.3944 30.4861 17.4373C30.4647 17.4826 30.4432 17.5529 30.4432 17.6374L30.7314 17.6279C30.7242 17.5433 30.7171 17.4778 30.6897 17.4349M29.7205 17.5874C29.7205 17.5219 29.7097 17.4659 29.6835 17.4337C29.6585 17.4015 29.624 17.3872 29.574 17.3872C29.5395 17.3872 29.5109 17.4015 29.4787 17.4266C29.4621 17.4516 29.4406 17.4909 29.4275 17.5314C29.4168 17.585 29.4097 17.641 29.4097 17.7113C29.4132 17.8174 29.4275 17.9043 29.4478 17.9663C29.4764 18.0175 29.5109 18.0437 29.5668 18.0437C29.5883 18.0402 29.6157 18.033 29.6371 18.0223C29.6657 18.0116 29.6835 17.9901 29.7002 17.9663C29.7133 17.9413 29.7276 17.9091 29.7276 17.8781L29.7205 17.5886V17.5874ZM29.7205 17.5874C29.7205 17.5219 29.7097 17.4659 29.6835 17.4337C29.6585 17.4015 29.624 17.3872 29.574 17.3872C29.5395 17.3872 29.5109 17.4015 29.4787 17.4266C29.4621 17.4516 29.4406 17.4909 29.4275 17.5314C29.4168 17.585 29.4097 17.641 29.4097 17.7113C29.4132 17.8174 29.4275 17.9043 29.4478 17.9663C29.4764 18.0175 29.5109 18.0437 29.5668 18.0437C29.5883 18.0402 29.6157 18.033 29.6371 18.0223C29.6657 18.0116 29.6835 17.9901 29.7002 17.9663C29.7133 17.9413 29.7276 17.9091 29.7276 17.8781L29.7205 17.5886V17.5874ZM30.6897 17.4349C30.6718 17.3932 30.6361 17.3717 30.5921 17.3717C30.548 17.3717 30.5147 17.3932 30.4873 17.4361C30.4658 17.4814 30.4444 17.5517 30.4444 17.6363L30.7326 17.6267C30.7254 17.5421 30.7183 17.4766 30.6909 17.4337M31.2993 19.8619C31.2493 19.9025 31.2231 19.9537 31.2231 20.0288C31.2231 20.0633 31.2291 20.0955 31.2577 20.1169C31.2743 20.1408 31.3053 20.155 31.3482 20.155C31.3756 20.155 31.4041 20.1431 31.4327 20.13C31.4637 20.1169 31.4815 20.0919 31.503 20.0633C31.5125 20.0383 31.5232 20.0073 31.5232 19.9787L31.5268 19.8095C31.422 19.8095 31.3482 19.831 31.2993 19.8631M31.2993 19.8631C31.2493 19.9036 31.2231 19.9549 31.2231 20.0299C31.2231 20.0645 31.2291 20.0967 31.2577 20.1181C31.2743 20.1419 31.3053 20.1562 31.3482 20.1562C31.3756 20.1562 31.4041 20.1443 31.4327 20.1312C31.4637 20.1181 31.4815 20.0931 31.503 20.0645C31.5125 20.0395 31.5232 20.0085 31.5232 19.9799L31.5268 19.8107C31.422 19.8107 31.3482 19.8322 31.2993 19.8643M30.6909 17.4361C30.673 17.3944 30.6373 17.3729 30.5932 17.3729C30.5492 17.3729 30.5159 17.3944 30.4885 17.4373C30.467 17.4826 30.4456 17.5529 30.4456 17.6374L30.7338 17.6279C30.7266 17.5433 30.7195 17.4778 30.6921 17.4349M29.7228 17.5874C29.7228 17.5219 29.7121 17.4659 29.6859 17.4337C29.6609 17.4015 29.6264 17.3872 29.5764 17.3872C29.5418 17.3872 29.5133 17.4015 29.4811 17.4266C29.4644 17.4516 29.443 17.4909 29.4299 17.5314C29.4192 17.585 29.4121 17.641 29.4121 17.7113C29.4156 17.8174 29.4299 17.9043 29.4502 17.9663C29.4787 18.0175 29.5133 18.0437 29.5692 18.0437C29.5907 18.0402 29.618 18.033 29.6395 18.0223C29.6681 18.0116 29.6859 17.9901 29.7026 17.9663C29.7157 17.9413 29.73 17.9091 29.73 17.8781L29.7228 17.5886V17.5874ZM31.3005 19.8631C31.2505 19.9036 31.2243 19.9549 31.2243 20.0299C31.2243 20.0645 31.2303 20.0967 31.2589 20.1181C31.2755 20.1419 31.3065 20.1562 31.3494 20.1562C31.3767 20.1562 31.4053 20.1443 31.4339 20.1312C31.4649 20.1181 31.4827 20.0931 31.5042 20.0645C31.5137 20.0395 31.5244 20.0085 31.5244 19.9799L31.528 19.8107C31.4232 19.8107 31.3494 19.8322 31.3005 19.8643M31.3005 19.8643C31.2505 19.9048 31.2243 19.9561 31.2243 20.0311C31.2243 20.0657 31.2303 20.0979 31.2589 20.1193C31.2755 20.1431 31.3065 20.1574 31.3494 20.1574C31.3767 20.1574 31.4053 20.1455 31.4339 20.1324C31.4649 20.1193 31.4827 20.0943 31.5042 20.0657C31.5137 20.0407 31.5244 20.0097 31.5244 19.9811L31.528 19.8119C31.4232 19.8119 31.3494 19.8333 31.3005 19.8655M31.3005 19.8655C31.2505 19.906 31.2243 19.9573 31.2243 20.0323C31.2243 20.0669 31.2303 20.099 31.2589 20.1205C31.2755 20.1443 31.3065 20.1586 31.3494 20.1586C31.3767 20.1586 31.4053 20.1467 31.4339 20.1336C31.4649 20.1205 31.4827 20.0955 31.5042 20.0669C31.5137 20.0419 31.5244 20.0109 31.5244 19.9823L31.528 19.8131C31.4232 19.8131 31.3494 19.8345 31.3005 19.8667M31.3005 19.8667C31.2505 19.9072 31.2243 19.9585 31.2243 20.0335C31.2243 20.0681 31.2303 20.1002 31.2589 20.1217C31.2755 20.1455 31.3065 20.1598 31.3494 20.1598C31.3767 20.1598 31.4053 20.1479 31.4339 20.1348C31.4649 20.1217 31.4827 20.0967 31.5042 20.0681C31.5137 20.043 31.5244 20.0121 31.5244 19.9835L31.528 19.8143C31.4232 19.8143 31.3494 19.8357 31.3005 19.8679" fill="white"/>
<path id="Vector_32" fill-rule="evenodd" clip-rule="evenodd" d="M13.1479 14.8435C13.0848 14.7851 13.0134 14.6612 13.1039 14.5933C13.136 14.5706 13.1741 14.5694 13.2098 14.5802C13.2932 14.6111 13.2587 14.7053 13.3122 14.7053C13.5325 14.6493 13.2944 14.9793 13.1479 14.8435Z" fill="white"/>
<path id="Vector_33" fill-rule="evenodd" clip-rule="evenodd" d="M13.4479 16.3483C13.6611 16.3745 13.4765 16.5687 13.3241 16.6271C13.2503 16.6557 13.1788 16.5937 13.1884 16.5055C13.1884 16.5055 13.1884 16.5055 13.1884 16.5044C13.1907 16.4805 13.2003 16.4567 13.2169 16.4388C13.2741 16.3781 13.3836 16.3483 13.4479 16.3483Z" fill="white"/>
<path id="Vector_34" fill-rule="evenodd" clip-rule="evenodd" d="M13.7196 13.5722C13.7231 13.5829 13.7255 13.5936 13.7291 13.6043C13.7291 13.6043 13.7184 13.602 13.7172 13.602C13.6743 13.5829 13.6374 13.5531 13.6041 13.5221C13.5707 13.4912 13.5421 13.4554 13.5183 13.4161C13.5159 13.4125 13.5136 13.4077 13.5112 13.4042C13.4755 13.316 13.4731 13.2207 13.4755 13.1099V13.0229C13.4755 12.9192 13.4719 12.8168 13.4338 12.7405C13.3742 12.6297 13.2873 12.557 13.1861 12.5403C13.0027 12.5094 12.761 12.5594 12.6717 12.7405C12.6396 12.8037 12.6384 12.8775 12.642 12.9466C12.6443 12.9919 12.642 13.0527 12.6765 13.0872C12.6967 13.1075 12.7265 13.117 12.7551 13.117C12.7551 13.117 12.7598 13.1146 12.7622 13.1123C12.7646 13.1087 12.7503 13.0837 12.7491 13.0801C12.7146 12.9919 12.717 12.8895 12.7706 12.8096C12.8182 12.7381 12.8932 12.6821 12.9754 12.6583C13.0575 12.6345 13.1456 12.6416 13.2218 12.6821C13.2599 12.7024 13.2933 12.7298 13.3219 12.762C13.3731 12.8215 13.3993 12.8978 13.4112 12.974C13.4135 12.9883 13.4147 13.0026 13.4159 13.0158C13.4243 13.1003 13.4016 13.1814 13.4004 13.2648C13.4004 13.3172 13.4028 13.3684 13.4135 13.4197C13.4278 13.484 13.4528 13.5472 13.485 13.6043C13.4969 13.6258 13.5088 13.646 13.5219 13.6675C13.3528 13.9094 13.1123 13.9451 12.8956 13.7712C12.8575 13.7426 12.842 13.5197 12.8991 13.4816C12.9134 13.4733 12.948 13.4876 12.9896 13.509C13.1325 13.5781 13.273 13.5281 13.3397 13.4209C13.3397 13.3946 13.3397 13.372 13.3528 13.3446C13.3492 13.3386 13.3254 13.3637 13.3159 13.372C13.2909 13.3935 13.2707 13.4197 13.2409 13.434C13.2016 13.4518 13.1552 13.4614 13.1111 13.459C13.0539 13.4554 13.0123 13.4292 12.967 13.397C12.9099 13.3577 12.8515 13.2922 12.7979 13.1873C12.7825 13.1837 12.7622 13.1849 12.7444 13.1718C12.7444 13.1901 12.744 13.2008 12.7432 13.204C12.7432 13.2171 12.7408 13.2302 12.7396 13.2421C12.7289 13.3172 12.7229 13.3923 12.7182 13.4673C12.7122 13.54 12.7039 13.6103 12.6765 13.6782C12.6681 13.6985 12.6598 13.7175 12.6503 13.7366C12.6384 13.758 12.6253 13.7795 12.6086 13.7986C12.5753 13.8367 12.5336 13.8486 12.4848 13.8498C12.4491 13.8498 12.4169 13.8474 12.3824 13.8391C12.3645 13.8355 12.3467 13.8331 12.3288 13.8331C12.2812 13.8331 12.2347 13.8486 12.1978 13.8808C12.1835 13.8939 12.1704 13.9094 12.1597 13.9249C12.1538 13.9344 12.1383 13.9177 12.1335 13.9117C12.1216 13.8963 12.1121 13.8748 12.118 13.8546C12.1204 13.8474 12.1228 13.8414 12.1252 13.8343C12.1288 13.8248 12.1335 13.8152 12.1371 13.8045C12.1418 13.7854 12.149 13.7664 12.1561 13.7485C12.1669 13.7235 12.1776 13.6997 12.1942 13.6794C12.2109 13.6568 12.2323 13.6425 12.2562 13.6294C12.2943 13.6103 12.3359 13.5984 12.374 13.5817C12.5443 13.5102 12.5336 13.2743 12.5372 13.123C12.5396 13.0384 12.5419 12.9526 12.555 12.8692C12.5705 12.7751 12.5991 12.6059 12.6753 12.5439C12.7313 12.4986 12.8003 12.4748 12.8694 12.4593C13.0349 12.4236 13.2147 12.4117 13.3707 12.4855C13.4588 12.5272 13.4981 12.6714 13.5207 12.762C13.5374 12.8299 13.5457 12.899 13.5576 12.9669C13.5933 13.1695 13.6576 13.3684 13.7148 13.5662" fill="white"/>
<path id="Vector_35" fill-rule="evenodd" clip-rule="evenodd" d="M14.0814 21.7791V24.3693H13.9171V22.4677C13.9171 22.3307 13.8921 22.2056 13.8159 22.2056C13.7527 22.2056 13.7242 22.3093 13.7242 22.4642V24.3693H13.5325V22.4677C13.5325 22.3307 13.5039 22.2056 13.4277 22.2056C13.3634 22.2056 13.336 22.3093 13.336 22.4642V24.3693H13.1371V22.4677C13.1371 22.3307 13.1121 22.2056 13.0383 22.2056C12.9716 22.2056 12.9419 22.3093 12.9442 22.4642V24.3693H12.7454V22.4677C12.7454 22.3307 12.724 22.2056 12.6466 22.2056C12.5799 22.2056 12.5489 22.3093 12.5525 22.4642V24.3693H12.3608V22.4677C12.3608 22.3307 12.3358 22.2056 12.262 22.2056C12.1881 22.2056 12.1607 22.3093 12.1607 22.4642V24.3693H12V21.7791H14.0814Z" fill="white"/>
<path id="Vector_36" fill-rule="evenodd" clip-rule="evenodd" d="M14.7472 21.4062V21.4181C14.7472 21.5027 14.6555 21.5718 14.5436 21.5718H11.5382C11.4274 21.5718 11.3381 21.5027 11.3381 21.4062C11.3381 21.324 11.4298 21.2537 11.5382 21.2537H14.5436C14.6531 21.2537 14.7472 21.324 14.7472 21.4062Z" fill="white"/>
<path id="Vector_37" fill-rule="evenodd" clip-rule="evenodd" d="M11.5917 16.4842C11.575 16.5593 11.6072 16.6331 11.6012 16.7094C11.6012 16.7153 11.6 16.7225 11.5941 16.7261C11.5834 16.7332 11.5631 16.7213 11.5536 16.7165C11.5393 16.7094 11.5274 16.6998 11.5167 16.6879C11.4941 16.6641 11.4786 16.6343 11.4655 16.6045C11.4631 16.6319 11.4679 16.6534 11.4714 16.6689C11.4762 16.6832 11.4607 16.6975 11.4464 16.6927C11.3047 16.645 11.3131 16.3829 11.35 16.2959C11.3774 16.2006 11.5727 16.1148 11.7417 16.1601C11.8918 16.1923 11.9585 16.6367 12.4228 16.5176C12.5669 16.4782 12.6574 15.7907 12.6717 15.7347C12.6919 15.4631 12.7098 15.1748 12.7348 14.8983C12.7562 14.6124 12.7979 14.3145 12.8193 14.0452C12.8328 13.9444 12.8797 13.9122 12.9599 13.9487C13.2278 14.0798 13.4814 13.9845 13.5886 13.7343C13.691 13.8534 13.679 13.826 13.5933 13.963C13.4421 14.1739 13.4564 14.1739 13.2956 14.3836C13.2432 14.4396 13.198 14.492 13.1313 14.5099C13.0623 14.5278 13.0039 14.5457 12.9908 14.6255C12.9694 14.753 13.0444 14.8733 13.1492 14.94C13.1873 14.9651 13.2754 15.139 13.3147 15.1736C13.3802 15.226 13.3766 15.2808 13.3421 15.3416C13.2956 15.4226 13.2575 15.5108 13.204 15.5882C13.1801 15.6216 13.1528 15.6561 13.117 15.6764C13.073 15.7014 13.023 15.699 12.9753 15.7026C12.942 15.705 12.9087 15.7026 12.8753 15.7062C12.8027 15.7133 12.7908 15.6656 12.7991 15.6001C12.8062 15.5262 12.8408 15.3356 12.8408 15.3142C12.8205 15.3344 12.7122 15.6668 12.6729 15.7467C12.6419 15.8527 12.7467 15.8348 12.7574 15.9206C12.8062 16.1553 12.7884 16.4389 12.7991 16.3972C12.8205 16.2304 12.8348 16.085 12.8348 16.0124C12.8432 15.8563 12.7265 15.7026 13.0337 15.7907C13.1766 15.8575 13.0551 16.035 13.0372 16.116C13.0063 16.2578 13.0754 16.3936 13.0944 16.5319C13.1027 16.5962 13.1063 16.6629 13.1539 16.713C13.2432 16.8059 13.398 16.6915 13.4778 16.6379C13.5135 16.6057 13.5624 16.57 13.5909 16.5319C13.6255 16.5033 13.6814 16.4258 13.7195 16.4234C13.785 16.4222 13.8196 16.489 13.835 16.545C13.8719 16.682 13.8636 16.8369 13.8481 16.9775C13.8327 17.1312 13.8005 17.2825 13.7815 17.435C13.7815 17.4433 13.7791 17.4505 13.7791 17.4576C13.7314 17.8711 13.6921 18.2833 13.6255 18.692C13.6005 18.8457 13.816 18.8862 13.9279 18.9172C14.1399 18.9744 14.3625 19.0006 14.5769 19.053C14.634 19.0673 14.6959 19.084 14.7388 19.1233C14.7436 19.1281 14.7483 19.1329 14.7531 19.1376C14.7912 19.1793 14.8067 19.2389 14.8067 19.2961C14.8067 19.3533 14.7924 19.4081 14.7769 19.4629C14.7948 19.4021 14.7721 19.333 14.7305 19.2842C14.6888 19.2353 14.6292 19.2032 14.5709 19.1781C14.4197 19.1138 14.2518 19.0876 14.0887 19.1019C14.0017 19.109 13.9493 19.1531 13.9279 19.2389C13.9053 19.3271 13.9041 19.4176 13.9041 19.5094C13.9065 19.7393 13.91 19.9752 13.9517 20.204C13.972 20.3208 14.0029 20.4363 14.047 20.5471C14.0887 20.6496 14.1661 20.7342 14.1982 20.8402C14.2125 20.8986 14.2125 20.9808 14.1184 20.9868C13.9077 21.019 13.5505 21.0619 13.4385 20.9379C13.3516 20.8462 13.379 20.7104 13.3695 20.5984C13.3587 20.4554 13.3456 20.3136 13.3456 20.173C13.3456 19.9633 13.3421 19.75 13.3421 19.5451C13.3421 19.221 13.3242 18.9315 13.3183 18.6062C13.3004 18.3679 13.3004 18.1141 13.3004 17.8639C13.3004 17.7746 13.3099 17.6745 13.2933 17.5291C13.279 17.6185 13.2194 19.6952 13.192 20.6877C13.1813 20.9963 12.4609 21.0631 12.4895 21.0345C12.5169 21.0285 12.8253 20.87 12.8455 20.7104C12.8777 20.4268 12.9015 20.1408 12.9051 19.8632C12.9325 19.171 12.8563 18.1249 12.8455 18.6777C12.8455 19.221 12.7789 20.5614 12.7515 20.6794C12.7431 20.7521 12.6705 20.7854 12.6074 20.7997C12.5181 20.8212 12.4216 20.8212 12.33 20.8152C12.2502 20.8105 12.1692 20.7997 12.0906 20.7842C11.9882 20.764 12.0251 20.5602 12.0335 20.4947C12.0585 20.2814 12.0871 20.0694 12.1002 19.8549C12.1597 19.3163 12.0728 18.3524 12.0728 17.4767C12.0728 17.1598 12.062 16.533 11.9513 16.4246C11.937 16.4115 11.9192 16.3924 11.8977 16.3936C11.8811 16.3948 11.8715 16.4103 11.8644 16.4234C11.843 16.4663 11.8358 16.5152 11.8179 16.5604C11.8096 16.5807 11.7989 16.601 11.7822 16.6153C11.7703 16.6248 11.7465 16.6391 11.737 16.62C11.7322 16.6093 11.7286 16.5962 11.7286 16.5855C11.7286 16.5747 11.7286 16.5652 11.7286 16.5545C11.7263 16.5211 11.7215 16.4866 11.706 16.4568C11.6941 16.4318 11.662 16.4139 11.6346 16.427C11.6143 16.4377 11.6048 16.4616 11.6 16.483C11.6 16.4842 11.6 16.4866 11.6 16.4878" fill="white"/>
<path id="Vector_38" fill-rule="evenodd" clip-rule="evenodd" d="M14.7043 14.6099C14.69 14.6802 14.6877 14.7993 14.7865 14.7993C14.8686 14.7993 14.9401 14.7422 15.008 14.704C15.0294 14.6921 14.8853 14.8708 14.7079 14.8959C14.5209 14.9125 14.4721 14.3764 14.4721 14.3597C14.4555 14.3811 14.4721 15.0293 14.4555 15.1258C14.4555 15.2771 14.4055 15.065 14.228 15.0793C14.103 15.0913 13.9875 15.1282 13.903 15.2235C13.9387 15.2176 13.9708 15.2021 14.0054 15.1901C14.072 15.1663 14.1423 15.1473 14.2137 15.1556C14.3519 15.1723 14.4126 15.2926 14.4281 15.4177C14.4316 15.4475 14.4328 15.4761 14.4328 15.5059C14.4328 15.5095 14.4293 15.5535 14.4328 15.5547C14.384 15.5333 14.2685 15.5226 14.2364 15.55C14.1887 15.5845 14.1887 15.637 14.2126 15.6846C14.2304 15.718 14.2554 15.7442 14.2769 15.7752C14.3173 15.8324 14.3471 15.8991 14.3721 15.9634C14.3816 15.9872 14.39 16.0123 14.3971 16.0361C14.3995 16.0421 14.4162 16.1112 14.4162 16.1112C14.3626 16.1147 14.3078 16.1183 14.2542 16.1219C14.1518 16.1278 14.0494 16.1159 13.947 16.1219C13.8279 16.1302 13.7291 16.1838 13.6255 16.2363C13.5315 16.2827 13.098 16.3769 13.1326 16.1707C13.1742 16.0039 13.185 15.8312 13.2397 15.662C13.2576 15.6167 13.2719 15.5738 13.2921 15.5476C13.3731 15.4416 13.4707 15.3415 13.5303 15.2521C13.5708 15.1925 13.6112 15.1365 13.6422 15.0698C13.6732 15.0031 13.6934 14.9304 13.7148 14.8601C13.7267 14.8232 13.7398 14.7862 13.7482 14.7469C13.7565 14.7076 13.7601 14.6671 13.7637 14.6278C13.7672 14.5742 13.7696 14.5193 13.766 14.4645C13.766 14.4586 13.7648 14.4526 13.7637 14.4479C13.7637 14.511 13.6339 14.8136 13.6208 14.8541C13.6255 14.8303 13.6184 14.8005 13.6148 14.7779C13.6041 14.7112 13.5767 14.6516 13.541 14.5956C13.5267 14.573 13.5112 14.5503 13.4934 14.5313C13.4898 14.5277 13.4707 14.5074 13.4707 14.5229C13.4707 14.536 13.4826 14.5503 13.4898 14.561C13.5053 14.5861 13.5184 14.6123 13.5291 14.6397C13.5588 14.7207 13.5624 14.8077 13.5624 14.8935C13.5624 14.9602 13.5708 15.0496 13.51 15.0936C13.4719 15.121 13.3981 15.121 13.3517 15.0996C13.2921 15.0758 13.2397 14.9745 13.2397 14.909C13.2778 14.9626 13.46 15.102 13.5017 14.9864C13.5196 14.9387 13.5207 14.8863 13.5172 14.8375C13.5148 14.791 13.51 14.741 13.4981 14.6969C13.4791 14.629 13.4362 14.5765 13.3612 14.573C13.3445 14.573 13.3278 14.5765 13.31 14.5765C13.2945 14.5765 13.279 14.5706 13.2719 14.5563C13.2659 14.5432 13.2671 14.5277 13.2755 14.5158C13.2874 14.5003 13.2993 14.486 13.3124 14.4705C13.3314 14.4479 13.3493 14.424 13.3671 14.4002C13.391 14.368 13.4136 14.3335 13.435 14.2989C13.4648 14.2489 13.4969 14.2 13.5291 14.15C13.56 14.0845 13.6863 13.9582 13.7494 13.9248C13.7732 13.9069 13.791 13.9153 13.8089 13.9653C13.9077 14.169 14.1137 14.1941 14.2638 14.0392C14.309 13.9975 14.3662 13.9153 14.409 13.9141C14.5055 13.9129 14.6067 14.0392 14.6829 14.0845C14.7424 14.1357 14.9139 14.2679 14.9556 14.3073C14.9722 14.3239 14.9627 14.3287 14.946 14.3311C14.9115 14.3347 14.8805 14.3418 14.8496 14.3621C14.7686 14.4145 14.7186 14.5134 14.7007 14.6063" fill="white"/>
<path id="Vector_39" fill-rule="evenodd" clip-rule="evenodd" d="M15.0306 15.1854C14.946 15.4082 15.383 15.2378 15.083 16.4364C15.083 16.4364 14.7579 17.5874 15.1996 18.9802C15.2866 19.2483 15.3318 19.6498 15.0449 19.7654C14.8067 19.8655 14.8043 20.6793 14.665 21.0606C14.6269 21.051 14.5876 21.0451 14.5459 21.0451H14.4757C14.5674 20.9104 14.584 20.7472 14.5924 20.5899C14.5924 20.4636 14.6043 20.3373 14.609 20.211C14.6138 20.105 14.6352 19.9835 14.5936 19.8822C14.5424 19.7583 14.2411 19.8524 14.1816 19.8584C14.1911 19.8488 14.2602 19.8131 14.2971 19.7952C14.3733 19.7571 14.4554 19.7332 14.5376 19.7106C14.7281 19.6594 14.9472 19.5867 14.9686 19.3544C14.977 19.2531 14.9472 19.153 14.927 19.0541C14.8936 18.8873 14.8639 18.7193 14.8341 18.5525C14.8186 18.4667 14.8043 18.3821 14.7888 18.2963C14.7805 18.2522 14.7722 18.2082 14.7638 18.1653C14.7567 18.1271 14.7388 18.0807 14.7388 18.0413C14.69 17.815 14.6626 17.5862 14.6686 17.3586C14.69 16.9654 14.771 16.5496 14.8543 16.1719C14.8758 16.0706 14.9055 15.9717 14.9198 15.8705C14.927 15.8192 14.9305 15.7668 14.927 15.7144C14.9222 15.6608 14.9079 15.6143 14.8877 15.5643C14.8603 15.4951 14.8246 15.4308 14.7924 15.3629C14.7507 15.2759 14.7257 15.1746 14.7793 15.0877C14.821 15.0186 14.8793 14.9578 14.9353 14.9006C14.9734 14.8613 15.0127 14.8232 15.0532 14.7862C15.102 14.7195 15.2175 14.648 15.2497 14.5575C15.2842 14.4836 15.2628 14.3763 15.2008 14.312C15.1127 14.2358 15.0544 14.2918 14.9639 14.2167C14.8127 14.0904 14.6555 13.9355 14.4828 13.8581C14.4495 13.8438 14.4138 13.8283 14.3769 13.8378C14.3411 13.8473 14.3149 13.8807 14.2971 13.9117C14.2554 13.982 14.178 14.0237 14.097 14.0237C14.0304 14.0237 13.9684 13.9915 13.922 13.945C13.8732 13.895 13.8494 13.8342 13.8267 13.7687C13.8244 13.7627 13.8077 13.665 13.8101 13.6638C13.8827 13.6305 13.891 13.5709 13.916 13.503C13.9291 13.4672 13.9434 13.4315 13.9672 13.4017C13.9958 13.3648 14.0554 13.391 14.0732 13.422C14.122 13.5066 14.2542 13.5089 14.3221 13.4255C14.4162 13.36 14.434 13.5411 14.409 13.6198C14.4054 13.6376 14.3995 13.6507 14.3959 13.6698C14.4197 13.6591 14.4483 13.6341 14.459 13.6198C14.5602 13.4923 14.5364 13.3338 14.4757 13.2206C14.3852 13.0729 14.2697 13.0014 14.0839 13.0097C14.0161 13.0121 13.9518 13.024 13.8946 13.0621C13.8232 13.1098 13.7827 13.1992 13.7565 13.2766C13.7208 13.223 13.6993 13.1491 13.6886 13.1086C13.6374 12.9073 13.6303 12.7404 13.5957 12.6535C13.5636 12.5534 13.5017 12.4843 13.4767 12.4724L13.4802 12.2996C13.6696 12.1721 13.6279 11.9445 13.5148 11.8826C13.4326 11.8242 13.3445 11.9052 13.3445 11.9052C13.3266 11.8778 13.3028 11.8552 13.2754 11.8385C13.2421 11.817 13.2076 11.8063 13.1671 11.8111C13.1302 11.8159 13.0956 11.8313 13.0635 11.8492C13.0575 11.8528 13.0528 11.8564 13.048 11.8599C13.029 11.8516 13.0194 11.8385 13.0159 11.8266C13.0516 11.8099 13.0778 11.767 13.0778 11.7313C13.079 11.655 13.0301 11.6205 12.9789 11.6205C12.9277 11.6205 12.8765 11.6645 12.8765 11.7313C12.8765 11.7646 12.9063 11.8039 12.9432 11.8218C12.948 11.8456 12.9385 11.8587 12.9266 11.8659C12.7265 11.7634 12.6527 11.9445 12.6527 11.9445C12.6527 11.9422 12.6313 11.9314 12.6301 11.9302C12.5955 11.91 12.5467 11.9064 12.5098 11.9219C12.486 11.9314 12.4669 11.9457 12.4515 11.966C12.4241 12.0017 12.411 12.0494 12.411 12.0935C12.411 12.1721 12.4288 12.2353 12.4884 12.2996C12.4991 12.3115 12.5158 12.3318 12.5229 12.3377L12.5539 12.5427C12.5181 12.5748 12.4705 12.7178 12.4657 12.8536C12.4598 13.0419 12.4527 13.2158 12.4062 13.3576C12.3372 13.4923 12.2621 13.4899 12.1228 13.615C11.9514 13.7687 11.5751 15.426 11.5477 15.5416C11.5191 15.7608 11.3691 16.0063 11.2667 16.2041C11.0333 16.6759 11.4667 17.0381 11.3608 17.9627C11.3298 18.2344 11.2381 20.1443 11.3893 20.4362C11.456 20.5768 11.637 20.4684 11.6692 20.603C11.6846 20.6566 11.6275 20.8937 11.6692 21.0451H11.5632C11.5691 20.9736 11.5703 20.9021 11.5632 20.8318C11.5525 20.7353 11.5215 20.6662 11.4191 20.6447C11.3572 20.6304 11.2846 20.6507 11.2286 20.6161C11.1286 20.5542 11.1036 20.36 11.0857 20.2551C11.0631 20.1169 11.0583 19.9763 11.0571 19.8369C11.0536 19.576 11.0821 19.3162 11.1083 19.0577C11.1452 18.6943 11.1667 18.3285 11.1774 17.9627C11.1774 17.8162 11.1774 17.5183 11.1393 17.3098C11.1083 17.199 11.0547 16.969 11.0274 16.8499C10.8738 16.2077 11.1393 15.9753 11.2762 15.6191C11.3774 15.3653 11.7477 13.9295 11.7835 13.8342C11.8204 13.7365 11.843 13.6269 11.9133 13.5459C11.9776 13.472 12.0692 13.4315 12.1383 13.3636C12.3241 13.1837 12.2681 12.8644 12.1943 12.6463C12.1431 12.4926 12.0835 12.3568 12.0835 12.19C12.0835 11.6776 12.5181 11.2559 13.0147 11.2559C13.5112 11.2559 13.9589 11.6776 13.9589 12.19C13.9589 12.3961 13.8922 12.5832 13.7803 12.7369C13.7779 12.7381 13.7755 12.7393 13.7744 12.7404H13.7767C13.7767 12.7404 13.7791 12.7381 13.7803 12.7369C13.9018 12.6463 14.0518 12.5927 14.2137 12.5927C14.6198 12.5927 14.9413 12.9204 14.9413 13.3278C14.9413 13.503 14.8793 13.665 14.7757 13.7925C14.821 13.8116 15.1556 14.1583 15.1925 14.1726C15.308 14.2072 15.4759 14.2596 15.514 14.3752C15.6331 14.7707 15.1508 14.8708 15.0353 15.1854" fill="white"/>
<path id="Vector_40" fill-rule="evenodd" clip-rule="evenodd" d="M13.7739 12.7369C13.7739 12.7369 13.7728 12.7392 13.7706 12.7403H13.7683C13.7683 12.7403 13.7717 12.7381 13.7739 12.7369Z" fill="white"/>
<path id="Vector_41" fill-rule="evenodd" clip-rule="evenodd" d="M13.7739 12.7369C13.7739 12.7369 13.7728 12.7392 13.7706 12.7403H13.7683C13.7683 12.7403 13.7717 12.7381 13.7739 12.7369Z" fill="white"/>
<path id="Vector_42" d="M12.6301 11.9934C12.6301 11.9934 12.505 11.9434 12.5003 12.0816C12.4943 12.1734 12.5848 12.3128 12.6717 12.339H12.7968C12.7968 12.339 12.6575 12.2174 12.6289 11.9934" fill="white"/>
<path id="Vector_43" d="M12.9347 11.9125L12.9871 12.3402H12.8716C12.8716 12.3402 12.8645 12.3343 12.8621 12.3331C12.8395 12.3152 12.8228 12.2914 12.8097 12.2652C12.7907 12.2306 12.7716 12.1937 12.7573 12.1555C12.7418 12.1162 12.7323 12.0757 12.7418 12.034C12.749 12.003 12.7633 11.9732 12.7859 11.9494C12.8109 11.9232 12.8407 11.9089 12.8764 11.9077C12.8812 11.9077 12.8859 11.9077 12.8859 11.9077C12.905 11.9077 12.9205 11.9101 12.9347 11.9125Z" fill="white"/>
<path id="Vector_44" fill-rule="evenodd" clip-rule="evenodd" d="M14.7458 15.7919C14.7899 15.7323 14.803 15.6585 14.7851 15.5858C14.7685 15.5203 14.7316 15.4619 14.6923 15.4083C14.6637 15.3689 14.6327 15.3296 14.6006 15.2927C14.5839 15.2736 14.566 15.2546 14.5458 15.2403C14.5434 15.2391 14.5398 15.2367 14.5398 15.2367C14.5398 15.2367 14.5267 15.2427 14.5256 15.2486C14.5113 15.2855 14.5172 15.3272 14.5279 15.3642C14.5387 15.4023 14.5541 15.4381 14.5601 15.4774C14.5649 15.5119 14.5601 15.5512 14.5327 15.5727C14.5208 15.581 14.5077 15.5858 14.4934 15.5882C14.4482 15.5989 14.3993 15.5965 14.3577 15.6168C14.3541 15.6192 14.3493 15.6215 14.3469 15.6251C14.3362 15.637 14.3458 15.6573 14.3577 15.6668C14.4029 15.7061 14.4767 15.6895 14.5267 15.7216C14.4934 15.724 14.4601 15.7252 14.4267 15.7276C14.4267 15.7514 14.4446 15.7729 14.4636 15.7883C14.5029 15.8205 14.5529 15.8408 14.603 15.8443C14.6553 15.8491 14.7054 15.8241 14.7446 15.7919" fill="white"/>
<path id="Vector_45" fill-rule="evenodd" clip-rule="evenodd" d="M15.0959 14.3633C14.9911 14.3597 14.9983 14.4621 14.9459 14.4371C14.7458 14.312 14.8518 14.704 15.059 14.629C15.0959 14.6158 15.1352 14.5765 15.159 14.5467C15.1935 14.505 15.2019 14.4526 15.1745 14.4038C15.1578 14.3752 15.128 14.3621 15.0959 14.3621" fill="white"/>
<path id="Vector_46" d="M13.3538 11.9458C13.3538 11.9458 13.4765 11.8731 13.511 12.0185C13.5313 12.1054 13.4479 12.2544 13.3538 12.3008L13.2598 12.3068C13.2598 12.3068 13.3717 12.1745 13.3538 11.947" fill="white"/>
<path id="Vector_47" d="M13.0432 11.9052L13.0742 12.3246L13.1766 12.3139L13.1873 12.2996C13.2254 12.2508 13.2444 12.1864 13.2623 12.128C13.2825 12.0554 13.273 11.972 13.2075 11.9243C13.2004 11.9195 13.1921 11.9148 13.1837 11.9112C13.1432 11.8933 13.0944 11.8933 13.0515 11.904C13.0492 11.904 13.0456 11.9052 13.0432 11.9064" fill="white"/>
<path id="Vector_48" fill-rule="evenodd" clip-rule="evenodd" d="M11.6274 17.5326C11.6489 17.5922 11.6762 17.6756 11.7013 17.7423C11.7322 17.8245 11.7632 17.9151 11.787 17.9854C11.8358 18.1296 11.8632 18.1915 11.8858 18.3417C11.9084 18.4942 11.9215 18.6467 11.9299 18.8004C11.9418 18.9815 11.9573 19.1626 11.9585 19.3437C11.9585 19.4271 11.9573 19.5117 11.9477 19.5951C11.937 19.6868 11.9287 19.7822 11.8882 19.8667C11.8525 19.943 11.7953 20.0097 11.7322 20.0645C11.6965 20.0955 11.6572 20.1217 11.6239 20.1539C11.5762 20.2004 11.5334 20.2552 11.5024 20.3147C11.4905 20.3374 11.4726 20.3719 11.4845 20.3981C11.4488 20.3302 11.4607 20.2552 11.506 20.1956C11.5453 20.1432 11.6 20.1027 11.6501 20.0621C11.706 20.0181 11.7548 19.9692 11.7929 19.9073C11.9001 19.7309 11.8882 19.5093 11.8822 19.3103C11.8727 18.9815 11.6024 17.5636 11.6024 17.5636C11.6024 17.5636 11.5834 17.4683 11.5893 17.4671C11.6024 17.4647 11.625 17.5303 11.625 17.5303" fill="white"/>
<path id="Vector_49" fill-rule="evenodd" clip-rule="evenodd" d="M13.9361 16.2422C13.929 16.2458 13.923 16.2518 13.9183 16.2577C13.9087 16.2696 13.904 16.2839 13.9064 16.2982C13.9088 16.3149 13.9195 16.3304 13.9302 16.3423C13.9433 16.3566 13.96 16.3685 13.9766 16.3781C13.9921 16.3864 14.0076 16.3924 14.0242 16.3959C14.0647 16.4043 14.1076 16.39 14.1421 16.3685C14.1743 16.3495 14.2029 16.3197 14.21 16.2839C14.216 16.2553 14.2064 16.222 14.1802 16.2101C14.1683 16.2041 14.1552 16.2041 14.1421 16.2041C14.1159 16.2041 14.0885 16.2041 14.0624 16.2077C14.0362 16.2113 14.0112 16.216 13.985 16.222C13.9683 16.2267 13.9492 16.2315 13.9349 16.241" fill="white"/>
<path id="Vector_50" d="M46.6812 14.9829H50.8582C53.1932 14.9829 55.1293 15.73 55.1293 18.3989C55.1293 21.0678 53.3349 21.847 50.9689 21.847H49.159V26.2329H46.6812V14.9829ZM49.159 19.75H50.8106C51.6834 19.75 52.5574 19.4474 52.5574 18.3989C52.5574 17.2384 51.3821 17.0799 50.4284 17.0799H49.159V19.75Z" fill="white"/>
<path id="Vector_51" d="M59.7694 14.9829H57.2915V26.2329H59.7694V14.9829Z" fill="white"/>
<path id="Vector_52" d="M62.7546 14.9829H65.2325V23.9452H69.8216V26.2329H62.7546V14.9829Z" fill="white"/>
<path id="Vector_53" d="M75.5239 14.9829H77.5719L82.4634 26.2329H79.6688L78.6995 23.8499H74.3332L73.3961 26.2329H70.6646L75.5239 14.9829ZM76.4765 18.2559L75.1107 21.7517H77.8577L76.4765 18.2559Z" fill="white"/>
<path id="Vector_54" d="M84.228 14.9829H88.5789C90.8818 14.9829 92.8191 15.7776 92.8191 18.3989C92.8191 19.9728 91.9772 21.1965 90.39 21.4812L93.2477 26.2329H90.2781L87.9276 21.7362H86.7047V26.2329H84.2268V14.9829H84.228ZM86.7059 19.638H88.1669C89.0719 19.638 90.2471 19.6059 90.2471 18.3834C90.2471 17.2551 89.2302 17.0799 88.3253 17.0799H86.7059V19.638Z" fill="white"/>
<path id="Vector_55" d="M46.4631 29.0209H47.6098L49.8103 34.1133H49.8293L52.0476 29.0209H53.1669V35.5168H52.3965V30.067H52.3786L50.0484 35.5168H49.5816L47.2514 30.067H47.2335V35.5168H46.4631V29.0209Z" fill="white"/>
<path id="Vector_56" d="M59.648 33.0397C59.648 34.4528 58.9871 35.6824 57.1998 35.6824C55.4126 35.6824 54.7517 34.4528 54.7517 33.0397V29.0209H55.5221V32.9301C55.5221 33.9762 55.9067 34.9676 57.1998 34.9676C58.493 34.9676 58.8776 33.9762 58.8776 32.9301V29.0209H59.648V33.0397Z" fill="white"/>
<path id="Vector_57" d="M61.2329 29.0209H62.2057L65.9648 34.4159H65.9839V29.0209H66.7543V35.5168H65.7815L62.0224 30.1218H62.0033V35.5168H61.2329V29.0209Z" fill="white"/>
<path id="Vector_58" d="M69.1369 29.0209H68.3665V35.518H69.1369V29.0209Z" fill="white"/>
<path id="Vector_59" d="M75.2988 30.3601C74.9131 29.837 74.2998 29.5713 73.6759 29.5713C72.2268 29.5713 71.2004 30.8474 71.2004 32.2688C71.2004 33.7737 72.2184 34.9663 73.6759 34.9663C74.4642 34.9663 75.0976 34.6446 75.556 34.0584L76.1335 34.5445C75.556 35.325 74.7118 35.6824 73.6759 35.6824C71.8148 35.6824 70.374 34.2419 70.374 32.2688C70.374 30.2957 71.7493 28.8552 73.6759 28.8552C74.5558 28.8552 75.4179 29.1579 75.968 29.8739L75.2988 30.3601Z" fill="white"/>
<path id="Vector_60" d="M77.9745 29.0209H77.2041V35.518H77.9745V29.0209Z" fill="white"/>
<path id="Vector_61" d="M79.5879 29.0208H81.5133C82.7052 29.0208 83.7876 29.4426 83.7876 30.8009C83.7876 32.1592 82.5766 32.5989 81.6597 32.5989H80.3583V35.5168H79.5879V29.0197V29.0208ZM80.3583 31.884H81.6597C82.4301 31.884 82.9624 31.5349 82.9624 30.8104C82.9624 30.086 82.4301 29.7369 81.6597 29.7369H80.3583V31.884Z" fill="white"/>
<path id="Vector_62" d="M85.7951 29.0209H85.0247V35.518H85.7951V29.0209Z" fill="white"/>
<path id="Vector_63" d="M87.0322 32.2688C87.0322 30.3053 88.4539 28.8552 90.4258 28.8552C92.3976 28.8552 93.8193 30.3053 93.8193 32.2688C93.8193 34.2324 92.3976 35.6824 90.4258 35.6824C88.4539 35.6824 87.0322 34.2324 87.0322 32.2688ZM92.993 32.2688C92.993 30.7735 91.9475 29.5713 90.4258 29.5713C88.904 29.5713 87.8586 30.7735 87.8586 32.2688C87.8586 33.7641 88.904 34.9663 90.4258 34.9663C91.9475 34.9663 92.993 33.7641 92.993 32.2688Z" fill="white"/>
</g>
<defs>
<clipPath id="clip0_1741_13721">
<rect width="93.8182" height="48" fill="white"/>
</clipPath>
</defs>
</svg>
