<?xml version="1.0" encoding="UTF-8"?>
<svg xmlns="http://www.w3.org/2000/svg" width="101" height="24" viewBox="0 0 101 24" fill="none">
  <g clip-path="url(#clip0_2004_278)">
    <path d="M17.3914 20.1304C17.1274 20.1304 16.9106 19.9089 16.9106 19.6355V12.8013C16.9106 12.4242 16.8823 12.0613 16.8305 11.7078C16.7786 11.359 16.6844 11.0574 16.543 10.8028C16.4016 10.553 16.2178 10.3504 15.9774 10.1948C15.7417 10.044 15.4306 9.96388 15.0489 9.96388C14.6671 9.96388 14.3607 10.044 14.0921 10.2043C13.8234 10.3645 13.5925 10.5813 13.4134 10.85C13.2295 11.1186 13.0929 11.4297 13.008 11.7785C12.9185 12.1273 12.8761 12.4902 12.8761 12.872V19.6261C12.8761 19.8995 12.664 20.121 12.3953 20.121H9.0583C8.79436 20.121 8.57755 19.8995 8.57755 19.6261V12.4666C8.57755 11.6936 8.42672 11.0856 8.1345 10.6332C7.83756 10.1854 7.36624 9.95916 6.72052 9.95916C6.03709 9.95916 5.50921 10.2372 5.13686 10.7934C4.7598 11.3496 4.57598 12.033 4.57598 12.8437V19.6261C4.57598 19.8995 4.35917 20.121 4.09522 20.121C1.97425 20.121 0.253906 18.3535 0.253906 16.1665V7.2019C0.253906 6.92853 0.470717 6.707 0.73466 6.707H3.93969C4.20363 6.707 4.42044 6.92853 4.42044 7.2019V8.56875H4.47229C4.62782 8.28124 4.82578 8.00315 5.06145 7.7345C5.29711 7.46584 5.57991 7.22546 5.91455 7.02279C6.24448 6.81541 6.61683 6.65045 7.02688 6.52319C7.43694 6.39593 7.8847 6.33466 8.37488 6.33466C9.31753 6.33466 10.1188 6.53261 10.7692 6.92853C11.2358 7.21132 11.6317 7.57896 11.9523 8.03615C12.1361 8.29538 12.5037 8.30952 12.7064 8.06443C13.0693 7.62138 13.4935 7.25374 13.979 6.95681C14.6577 6.54204 15.4872 6.33937 16.4676 6.33937C17.3584 6.33937 18.1031 6.50433 18.7064 6.83898C19.3097 7.17362 19.7951 7.60253 20.1581 8.13041C20.5257 8.6583 20.7896 9.25217 20.9593 9.90732C21.1243 10.5625 21.2091 11.2035 21.2091 11.835V19.6402C21.2091 19.9136 20.9923 20.1351 20.7284 20.1351H17.3914V20.1304Z" fill="white"></path>
    <path d="M27.8077 2.42734C27.8077 2.76669 27.7417 3.08719 27.6097 3.38413C27.4777 3.68107 27.3033 3.93558 27.0865 4.15239C26.8697 4.3692 26.6058 4.53888 26.2994 4.66614C25.993 4.7934 25.6725 4.85467 25.3426 4.85467C24.645 4.85467 24.0606 4.6143 23.5893 4.13825C23.0755 3.61979 22.8399 2.9835 22.887 2.23409C22.8964 2.12569 22.9106 2.01728 22.9341 1.90888C23.0425 1.43284 23.2641 1.04163 23.5893 0.730557C23.8155 0.513747 24.0795 0.339356 24.3764 0.202671C24.6733 0.0659858 24.9938 0 25.3473 0C25.6773 0 25.9978 0.0612726 26.3041 0.188531C26.6105 0.315789 26.8697 0.485467 27.0912 0.702278C27.308 0.919088 27.4824 1.17361 27.6144 1.47054C27.7464 1.76748 27.8124 2.08798 27.8124 2.42734M23.2028 20.1304V8.15868C23.2028 7.35742 23.8344 6.70699 24.6121 6.70699H27.5013V20.1257H23.2075L23.2028 20.1304Z" fill="white"></path>
    <path d="M60.9561 20.2294C60.711 20.2294 60.5177 20.0267 60.5177 19.7769V12.9002C60.5177 12.5232 60.4894 12.1603 60.4376 11.8068C60.3857 11.458 60.2915 11.1563 60.1501 10.9018C60.0087 10.652 59.8249 10.4493 59.5892 10.2938C59.3535 10.143 59.0425 10.0628 58.6607 10.0628C58.2789 10.0628 57.9773 10.143 57.7039 10.3032C57.4352 10.4635 57.2043 10.6803 57.0205 10.9489C56.8367 11.2176 56.7 11.5287 56.6151 11.8775C56.5256 12.2262 56.4832 12.5892 56.4832 12.9709V19.7675C56.4832 20.0173 56.2852 20.22 56.0448 20.22H52.6277C52.3826 20.22 52.1894 20.0173 52.1894 19.7675V12.5656C52.1894 11.7926 52.0385 11.1846 51.7463 10.7321C51.4494 10.2844 50.9781 10.0581 50.3323 10.0581C49.6536 10.0581 49.121 10.3362 48.7487 10.8924C48.3716 11.4485 48.1831 12.132 48.1831 12.9427V19.7675C48.1831 20.0173 47.9851 20.22 47.7447 20.22H44.3041C44.059 20.22 43.8657 20.0173 43.8657 19.7675V7.25845C43.8657 7.00864 44.0637 6.80597 44.3041 6.80597H47.5892C47.8343 6.80597 48.0275 7.00864 48.0275 7.25845V8.66772H48.0794C48.2349 8.38021 48.4329 8.10212 48.6685 7.83347C48.9042 7.56481 49.187 7.32443 49.5217 7.12176C49.8516 6.91438 50.2239 6.74941 50.634 6.62216C51.044 6.4949 51.4918 6.43362 51.982 6.43362C52.9246 6.43362 53.7259 6.63158 54.381 7.0275C54.8618 7.31972 55.2671 7.7015 55.5924 8.17754C55.7573 8.41791 56.1014 8.43205 56.2805 8.20582C56.6481 7.74391 57.0865 7.36214 57.5861 7.05578C58.2648 6.64101 59.0943 6.43834 60.0747 6.43834C60.9655 6.43834 61.7102 6.6033 62.3135 6.93794C62.9168 7.27259 63.4022 7.70149 63.7652 8.22938C64.1328 8.75727 64.3967 9.35114 64.5617 10.0063C64.7267 10.6614 64.8115 11.3024 64.8115 11.934V19.7816C64.8115 20.0314 64.6136 20.2341 64.3732 20.2341H60.9561V20.2294Z" fill="white"></path>
    <path d="M75.7934 20.2294C75.5436 20.2294 75.341 20.022 75.341 19.7675V18.3724H75.2891C75.1336 18.6787 74.9262 18.9662 74.6717 19.2349C74.4172 19.5035 74.1202 19.7392 73.7809 19.9372C73.4415 20.1351 73.0645 20.2954 72.6544 20.4226C72.2443 20.5499 71.8107 20.6112 71.3583 20.6112C70.4863 20.6112 69.7463 20.4509 69.143 20.1257C68.5397 19.8005 68.0495 19.3857 67.6772 18.872C67.3001 18.3582 67.0315 17.7738 66.8665 17.1186C66.7015 16.4635 66.6167 15.7942 66.6167 15.1108V6.8107H69.7086C70.3873 6.8107 70.9341 7.37629 70.9341 8.07386V14.088C70.9341 14.4651 70.9623 14.8233 71.0142 15.1673C71.066 15.5067 71.165 15.8131 71.3158 16.0817C71.4619 16.3504 71.6599 16.5625 71.905 16.7133C72.1501 16.8641 72.4706 16.9442 72.8759 16.9442C73.6253 16.9442 74.2004 16.6567 74.5916 16.0817C74.9828 15.5067 75.1807 14.8327 75.1807 14.0597V6.8107H78.2349C78.9231 6.8107 79.4792 7.38572 79.4792 8.088V19.7675C79.4792 20.022 79.2766 20.2294 79.0267 20.2294H75.7934Z" fill="white"></path>
    <path d="M90.7015 20.2294C90.3621 20.2294 90.0888 19.9466 90.0888 19.5978V12.9002C90.0888 12.5232 90.0558 12.165 89.9992 11.8209C89.9379 11.4815 89.839 11.1799 89.6976 10.9159C89.5562 10.6567 89.3629 10.4493 89.1084 10.2938C88.8539 10.143 88.5381 10.0628 88.1516 10.0628C87.7651 10.0628 87.4305 10.1382 87.143 10.2938C86.8554 10.4493 86.6151 10.6567 86.4218 10.9254C86.2286 11.194 86.0872 11.5051 85.9882 11.8539C85.8939 12.2027 85.8421 12.5656 85.8421 12.9474V20.2246H83.4807C82.3967 20.2246 81.52 19.3197 81.52 18.2074V6.81067H84.4328C85.1257 6.81067 85.6866 7.39041 85.6866 8.10211V8.67242H85.7384C85.8939 8.38491 86.1013 8.10211 86.3511 7.82403C86.6056 7.54594 86.9026 7.30557 87.2419 7.11232C87.5813 6.91436 87.9536 6.75411 88.3543 6.62686C88.7549 6.4996 89.1838 6.43832 89.6363 6.43832C90.5082 6.43832 91.2529 6.59858 91.8609 6.92379C92.4737 7.24901 92.9638 7.66378 93.3409 8.17752C93.718 8.69127 93.9866 9.27571 94.1516 9.945C94.3166 10.6096 94.4014 11.2741 94.4014 11.9387V19.6072C94.4014 19.956 94.128 20.2388 93.7887 20.2388H90.6921L90.7015 20.2294Z" fill="white"></path>
    <path d="M101 2.52158C101 2.86093 100.934 3.18144 100.802 3.47837C100.67 3.77531 100.496 4.02983 100.279 4.24664C100.062 4.46345 99.7981 4.63312 99.4965 4.76038C99.1901 4.88764 98.8743 4.94891 98.5444 4.94891C97.8515 4.94891 97.2671 4.71325 96.8005 4.23721C96.2867 3.71875 96.0558 3.08246 96.1029 2.33305C96.1123 2.22464 96.1265 2.11152 96.15 2.00783C96.2585 1.53179 96.4753 1.14059 96.8005 0.829512C97.0267 0.612702 97.2859 0.438311 97.5829 0.306339C97.8798 0.169654 98.2003 0.103668 98.5491 0.103668C98.8979 0.103668 99.1948 0.164941 99.5012 0.292199C99.8028 0.419458 100.067 0.589135 100.284 0.805946C100.5 1.02276 100.675 1.27727 100.807 1.57421C100.939 1.87115 101.005 2.19165 101.005 2.531M96.4046 19.4941V6.81066H99.2702C100.062 6.81066 100.698 7.47052 100.698 8.2812V19.4846C100.698 19.8947 100.373 20.2293 99.9772 20.2293H97.1304C96.7298 20.2293 96.4046 19.8947 96.4046 19.4846" fill="white"></path>
    <path d="M35.6601 23.6607C30.0136 23.6607 25.4229 18.938 25.4229 13.1312C25.4229 7.32445 30.0136 2.60175 35.6601 2.60175C41.3066 2.60175 45.8973 7.32445 45.8973 13.1312C45.8973 18.938 41.3066 23.6607 35.6601 23.6607Z" fill="#0069AB"></path>
    <path d="M35.6601 2.93636C41.1322 2.93636 45.5674 7.49881 45.5674 13.1312C45.5674 18.7635 41.1322 23.326 35.6601 23.326C30.188 23.326 25.7528 18.7635 25.7528 13.1312C25.7528 7.49881 30.188 2.93636 35.6601 2.93636ZM35.6601 2.26236C29.8345 2.26236 25.0977 7.13589 25.0977 13.1312C25.0977 19.1265 29.8345 24 35.6601 24C41.4857 24 46.2225 19.1217 46.2225 13.1312C46.2225 7.1406 41.4857 2.26236 35.6601 2.26236Z" fill="white"></path>
    <path d="M42.202 13.1312C42.202 16.85 39.275 19.8617 35.6599 19.8617C32.0449 19.8617 29.1179 16.8452 29.1179 13.1312C29.1179 9.41713 32.0449 6.40063 35.6599 6.40063C39.275 6.40063 42.202 9.41242 42.202 13.1312Z" fill="white"></path>
    <path d="M38.8932 13.6402L38.5963 13.9466L35.6599 16.9678L32.4266 13.6402C31.6159 12.806 31.6159 11.4533 32.4266 10.619C32.832 10.2043 33.3598 9.99216 33.8924 9.99216C34.425 9.99216 34.9576 10.1995 35.3583 10.619L35.6599 10.9254L35.9569 10.619C36.3622 10.2043 36.8948 9.99216 37.4227 9.99216C37.9506 9.99216 38.4832 10.1995 38.8885 10.619C39.6992 11.4533 39.6992 12.806 38.8885 13.6402" fill="#FF0000"></path>
  </g>
  <defs>
    <clipPath id="clip0_2004_278">
      <rect width="100.746" height="24" fill="white" transform="translate(0.253906)"></rect>
    </clipPath>
  </defs>
</svg>
